<?xml version="1.0" encoding="UTF-8"?>
<!DOCTYPE svg PUBLIC "-//W3C//DTD SVG 1.1//EN" "http://www.w3.org/Graphics/SVG/1.1/DTD/svg11.dtd">
<svg xmlns="http://www.w3.org/2000/svg" version="1.1" width="819px" height="819px" style="shape-rendering:geometricPrecision; text-rendering:geometricPrecision; image-rendering:optimizeQuality; fill-rule:evenodd; clip-rule:evenodd" xmlns:xlink="http://www.w3.org/1999/xlink">
<g><path style="opacity:0.997" fill="#fdfefe" d="M 380.5,-0.5 C 399.5,-0.5 418.5,-0.5 437.5,-0.5C 564.274,11.6207 665.774,68.2874 742,169.5C 786.654,232.823 812.154,303.157 818.5,380.5C 818.5,399.5 818.5,418.5 818.5,437.5C 806.379,564.274 749.713,665.774 648.5,742C 585.177,786.654 514.843,812.154 437.5,818.5C 418.5,818.5 399.5,818.5 380.5,818.5C 253.726,806.379 152.226,749.713 76,648.5C 31.3459,585.177 5.84592,514.843 -0.5,437.5C -0.5,418.5 -0.5,399.5 -0.5,380.5C 11.6207,253.726 68.2874,152.226 169.5,76C 232.823,31.3459 303.157,5.84592 380.5,-0.5 Z"/></g>
<g><path style="opacity:1" fill="#51cbf2" d="M 190.5,247.5 C 176.833,247.5 163.167,247.5 149.5,247.5C 149.5,248.5 149.5,249.5 149.5,250.5C 148.566,249.432 148.232,248.099 148.5,246.5C 162.677,246.171 176.677,246.504 190.5,247.5 Z"/></g>
<g><path style="opacity:1" fill="#0bb1ed" d="M 190.5,247.5 C 191.906,247.973 192.573,248.973 192.5,250.5C 178.414,250.545 164.08,250.545 149.5,250.5C 149.5,249.5 149.5,248.5 149.5,247.5C 163.167,247.5 176.833,247.5 190.5,247.5 Z"/></g>
<g><path style="opacity:1" fill="#31b3eb" d="M 611.5,258.5 C 608.813,258.664 606.146,258.497 603.5,258C 601.865,256.022 599.199,254.688 595.5,254C 591.117,253.398 586.784,252.565 582.5,251.5C 532.002,250.169 481.668,250.169 431.5,251.5C 429.379,251.325 427.379,251.659 425.5,252.5C 426.203,250.284 427.536,248.451 429.5,247C 477.5,246.333 525.5,246.333 573.5,247C 587.094,248.39 599.761,252.223 611.5,258.5 Z"/></g>
<g><path style="opacity:1" fill="#2095ce" d="M 431.5,251.5 C 426.137,257.858 420.804,264.192 415.5,270.5C 414.62,268.611 414.62,266.611 415.5,264.5C 418.463,260.202 421.797,256.202 425.5,252.5C 427.379,251.659 429.379,251.325 431.5,251.5 Z"/></g>
<g><path style="opacity:1" fill="#2893c4" d="M 149.5,251.5 C 149.5,251.167 149.5,250.833 149.5,250.5C 164.08,250.545 178.414,250.545 192.5,250.5C 196.845,254.847 200.845,259.514 204.5,264.5C 203.25,264.577 202.417,265.244 202,266.5C 201.329,265.748 200.496,265.414 199.5,265.5C 195.483,261.306 191.816,256.806 188.5,252C 175.504,251.5 162.504,251.333 149.5,251.5 Z"/></g>
<g><path style="opacity:1" fill="#3e4144" d="M 431.5,251.5 C 479.834,251.333 528.168,251.5 576.5,252C 595.667,255.094 613.001,262.261 628.5,273.5C 632.833,278.167 637.167,282.833 641.5,287.5C 647.049,293.722 651.382,300.722 654.5,308.5C 658.113,317.705 661.113,327.038 663.5,336.5C 664.565,349.145 664.731,361.812 664,374.5C 662.253,382.519 659.753,390.186 656.5,397.5C 657.926,390.628 659.593,383.794 661.5,377C 661.333,375.833 661.167,374.667 661,373.5C 659.034,378.683 657.368,384.016 656,389.5C 655.577,390.956 654.744,391.456 653.5,391C 654.833,387.333 656.167,383.667 657.5,380C 657.587,373.37 657.421,366.536 657,359.5C 656.667,360.5 656.333,361.5 656,362.5C 654.497,356.832 654.33,351.166 655.5,345.5C 653.009,344.459 653.009,343.626 655.5,343C 653.009,342.374 653.009,341.541 655.5,340.5C 654.689,339.784 654.022,338.95 653.5,338C 653.321,334.367 653.988,330.7 655.5,327C 655,324.5 654.5,322 654,319.5C 653.5,320 653,320.5 652.5,321C 653.554,322.388 653.72,323.888 653,325.5C 651.842,325.002 651.009,324.169 650.5,323C 651.455,318.708 651.455,314.208 650.5,309.5C 646.174,303.523 642.34,297.189 639,290.5C 635.159,286.327 630.993,282.493 626.5,279C 626.957,278.586 627.291,278.086 627.5,277.5C 623.696,277.015 620.529,275.348 618,272.5C 616.355,272.693 614.521,272.86 612.5,273C 614.392,273.973 616.392,274.64 618.5,275C 617.959,277.865 619.293,279.865 622.5,281C 621.5,281.333 620.5,281.667 619.5,282C 622.211,284.137 624.211,286.803 625.5,290C 625.167,290.333 624.833,290.667 624.5,291C 625.357,291.689 626.023,292.522 626.5,293.5C 623.884,294.079 623.884,295.579 626.5,298C 624.122,298.974 624.456,299.641 627.5,300C 624.745,301.596 621.911,301.429 619,299.5C 618.751,300.624 618.251,301.624 617.5,302.5C 617.167,301.833 616.833,301.167 616.5,300.5C 616.167,301.333 615.833,302.167 615.5,303C 617.787,306.187 618.62,309.687 618,313.5C 617.138,311.913 616.471,310.246 616,308.5C 615.667,310.167 615.333,311.833 615,313.5C 614.346,312.304 613.846,312.304 613.5,313.5C 614.025,314.192 614.692,314.692 615.5,315C 615.5,316.667 615.5,318.333 615.5,320C 612.97,322.835 613.137,325.669 616,328.5C 616.333,327.833 616.667,327.167 617,326.5C 617.273,328.101 617.773,329.601 618.5,331C 617.135,332.682 615.635,332.849 614,331.5C 611.641,334.124 611.975,334.791 615,333.5C 614.382,338.569 615.382,338.569 618,333.5C 618.814,335.282 619.981,336.782 621.5,338C 620.304,339.364 619.304,340.864 618.5,342.5C 619.423,344.129 619.757,345.629 619.5,347C 616.89,348.384 615.39,350.551 615,353.5C 614.759,350.711 614.092,348.044 613,345.5C 612.667,345.833 612.333,346.167 612,346.5C 611.134,342.193 610.134,341.86 609,345.5C 609.215,342.189 609.215,338.856 609,335.5C 608.667,336.167 608.333,336.833 608,337.5C 605.758,334.186 603.258,331.186 600.5,328.5C 600.167,328.5 599.833,328.5 599.5,328.5C 597.085,324.578 594.085,321.078 590.5,318C 583.879,314.348 576.879,311.682 569.5,310C 531.5,309.333 493.5,309.333 455.5,310C 432.623,336.706 409.956,363.539 387.5,390.5C 385.738,391.262 384.738,392.596 384.5,394.5C 374.865,404.972 365.365,415.639 356,426.5C 354.961,425.29 353.794,424.29 352.5,423.5C 352.262,421.596 351.262,420.262 349.5,419.5C 348.5,419.167 347.833,418.5 347.5,417.5C 347.573,415.973 346.906,414.973 345.5,414.5C 344.167,412.5 342.5,410.833 340.5,409.5C 340.262,407.596 339.262,406.262 337.5,405.5C 335.212,401.544 332.212,398.211 328.5,395.5C 328.262,393.596 327.262,392.262 325.5,391.5C 324.5,389.833 323.167,388.5 321.5,387.5C 321.262,385.596 320.262,384.262 318.5,383.5C 323.546,375.423 329.546,368.09 336.5,361.5C 337.707,360.811 339.041,360.645 340.5,361C 348.084,353.255 355.084,345.089 361.5,336.5C 367.5,329.167 373.5,321.833 379.5,314.5C 384.804,308.192 390.137,301.858 395.5,295.5C 399.833,290.167 404.167,284.833 408.5,279.5C 411.215,276.786 413.549,273.786 415.5,270.5C 420.804,264.192 426.137,257.858 431.5,251.5 Z"/></g>
<g><path style="opacity:1" fill="#2489b3" d="M 431.5,251.5 C 481.668,250.169 532.002,250.169 582.5,251.5C 586.784,252.565 591.117,253.398 595.5,254C 599.199,254.688 601.865,256.022 603.5,258C 606.146,258.497 608.813,258.664 611.5,258.5C 620.616,262.62 628.616,268.286 635.5,275.5C 634.85,275.804 634.183,276.137 633.5,276.5C 632.06,275.048 630.394,274.048 628.5,273.5C 613.001,262.261 595.667,255.094 576.5,252C 528.168,251.5 479.834,251.333 431.5,251.5 Z"/></g>
<g><path style="opacity:1" fill="#2d8dbb" d="M 204.5,264.5 C 208.647,268.795 212.313,273.462 215.5,278.5C 214.206,277.71 213.039,276.71 212,275.5C 210.586,276.413 209.086,276.413 207.5,275.5C 204.833,272.167 202.167,268.833 199.5,265.5C 200.496,265.414 201.329,265.748 202,266.5C 202.417,265.244 203.25,264.577 204.5,264.5 Z"/></g>
<g><path style="opacity:1" fill="#3e4143" d="M 656.5,397.5 C 654.565,404.036 651.565,410.036 647.5,415.5C 643.518,420.815 639.184,425.815 634.5,430.5C 618.908,445.629 600.241,454.963 578.5,458.5C 580.856,461.9 583.189,465.233 585.5,468.5C 587.573,472.308 589.906,475.974 592.5,479.5C 591.02,481.603 589.853,481.603 589,479.5C 585.377,485.824 580.377,490.824 574,494.5C 573.91,492.232 575.077,490.732 577.5,490C 577,489.5 576.5,489 576,488.5C 574.333,489.833 572.667,491.167 571,492.5C 570.751,491.376 570.251,490.376 569.5,489.5C 567.42,491.74 565.087,492.407 562.5,491.5C 560.896,491.939 559.396,492.606 558,493.5C 556.419,491.153 555.086,491.153 554,493.5C 552.203,491.844 550.036,490.844 547.5,490.5C 546.808,491.025 546.308,491.692 546,492.5C 543.32,489.764 540.653,487.098 538,484.5C 537.79,486.058 537.29,487.391 536.5,488.5C 531.167,481.833 525.833,475.167 520.5,468.5C 518.384,465.211 516.051,462.044 513.5,459C 504.256,458.819 495.089,458.319 486,457.5C 485.506,459.134 485.34,460.801 485.5,462.5C 484.503,442.674 484.17,422.674 484.5,402.5C 513.664,401.668 542.997,401.168 572.5,401C 575.375,399.698 578.375,398.865 581.5,398.5C 583.027,398.573 584.027,397.906 584.5,396.5C 593.279,391.721 599.612,384.721 603.5,375.5C 605.531,372.578 606.698,369.245 607,365.5C 607.818,359.651 607.652,353.985 606.5,348.5C 606.5,347.5 606.5,346.5 606.5,345.5C 606.001,340.331 604.334,335.664 601.5,331.5C 601.443,330.391 601.11,329.391 600.5,328.5C 603.258,331.186 605.758,334.186 608,337.5C 608.333,336.833 608.667,336.167 609,335.5C 609.215,338.856 609.215,342.189 609,345.5C 610.134,341.86 611.134,342.193 612,346.5C 612.333,346.167 612.667,345.833 613,345.5C 614.092,348.044 614.759,350.711 615,353.5C 615.39,350.551 616.89,348.384 619.5,347C 619.757,345.629 619.423,344.129 618.5,342.5C 619.304,340.864 620.304,339.364 621.5,338C 619.981,336.782 618.814,335.282 618,333.5C 615.382,338.569 614.382,338.569 615,333.5C 611.975,334.791 611.641,334.124 614,331.5C 615.635,332.849 617.135,332.682 618.5,331C 617.773,329.601 617.273,328.101 617,326.5C 616.667,327.167 616.333,327.833 616,328.5C 613.137,325.669 612.97,322.835 615.5,320C 615.5,318.333 615.5,316.667 615.5,315C 614.692,314.692 614.025,314.192 613.5,313.5C 613.846,312.304 614.346,312.304 615,313.5C 615.333,311.833 615.667,310.167 616,308.5C 616.471,310.246 617.138,311.913 618,313.5C 618.62,309.687 617.787,306.187 615.5,303C 615.833,302.167 616.167,301.333 616.5,300.5C 616.833,301.167 617.167,301.833 617.5,302.5C 618.251,301.624 618.751,300.624 619,299.5C 621.911,301.429 624.745,301.596 627.5,300C 624.456,299.641 624.122,298.974 626.5,298C 623.884,295.579 623.884,294.079 626.5,293.5C 626.023,292.522 625.357,291.689 624.5,291C 624.833,290.667 625.167,290.333 625.5,290C 624.211,286.803 622.211,284.137 619.5,282C 620.5,281.667 621.5,281.333 622.5,281C 619.293,279.865 617.959,277.865 618.5,275C 616.392,274.64 614.392,273.973 612.5,273C 614.521,272.86 616.355,272.693 618,272.5C 620.529,275.348 623.696,277.015 627.5,277.5C 627.291,278.086 626.957,278.586 626.5,279C 630.993,282.493 635.159,286.327 639,290.5C 642.34,297.189 646.174,303.523 650.5,309.5C 651.455,314.208 651.455,318.708 650.5,323C 651.009,324.169 651.842,325.002 653,325.5C 653.72,323.888 653.554,322.388 652.5,321C 653,320.5 653.5,320 654,319.5C 654.5,322 655,324.5 655.5,327C 653.988,330.7 653.321,334.367 653.5,338C 654.022,338.95 654.689,339.784 655.5,340.5C 653.009,341.541 653.009,342.374 655.5,343C 653.009,343.626 653.009,344.459 655.5,345.5C 654.33,351.166 654.497,356.832 656,362.5C 656.333,361.5 656.667,360.5 657,359.5C 657.421,366.536 657.587,373.37 657.5,380C 656.167,383.667 654.833,387.333 653.5,391C 654.744,391.456 655.577,390.956 656,389.5C 657.368,384.016 659.034,378.683 661,373.5C 661.167,374.667 661.333,375.833 661.5,377C 659.593,383.794 657.926,390.628 656.5,397.5 Z"/></g>
<g><path style="opacity:1" fill="#328cb8" d="M 415.5,264.5 C 414.62,266.611 414.62,268.611 415.5,270.5C 413.549,273.786 411.215,276.786 408.5,279.5C 407.417,279.461 406.417,279.127 405.5,278.5C 404.234,280.404 402.567,281.737 400.5,282.5C 405.034,276.091 410.034,270.091 415.5,264.5 Z"/></g>
<g><path style="opacity:1" fill="#3e4144" d="M 149.5,251.5 C 162.504,251.333 175.504,251.5 188.5,252C 191.816,256.806 195.483,261.306 199.5,265.5C 202.167,268.833 204.833,272.167 207.5,275.5C 212.863,281.858 218.196,288.192 223.5,294.5C 228.167,300.167 232.833,305.833 237.5,311.5C 244.821,320.819 252.488,329.819 260.5,338.5C 272.43,353.607 284.597,368.607 297,383.5C 299,385.5 301,387.5 303,389.5C 303.49,388.207 303.657,386.873 303.5,385.5C 311.209,393.873 318.542,402.54 325.5,411.5C 325.427,413.027 326.094,414.027 327.5,414.5C 334.658,421.64 340.992,429.474 346.5,438C 346.022,439.303 345.355,440.469 344.5,441.5C 342.413,442.585 341.08,444.251 340.5,446.5C 339.167,447.167 338.167,448.167 337.5,449.5C 336.094,449.973 335.427,450.973 335.5,452.5C 333.833,453.5 332.5,454.833 331.5,456.5C 330.094,456.973 329.427,457.973 329.5,459.5C 325.692,463.122 322.359,467.122 319.5,471.5C 318.5,471.833 317.833,472.5 317.5,473.5C 316.508,481.316 316.174,489.316 316.5,497.5C 316.167,497.5 315.833,497.5 315.5,497.5C 315.067,494.834 314.567,492.168 314,489.5C 311.381,491.769 308.881,491.769 306.5,489.5C 305.719,490.729 305.219,492.062 305,493.5C 304.722,492.584 304.222,491.918 303.5,491.5C 303.823,485.31 303.49,479.31 302.5,473.5C 300.833,471.5 299.167,469.5 297.5,467.5C 296.833,466.167 295.833,465.167 294.5,464.5C 290.963,459.421 286.963,454.754 282.5,450.5C 282.262,448.596 281.262,447.262 279.5,446.5C 274.554,439.221 268.887,432.554 262.5,426.5C 261.92,424.251 260.587,422.585 258.5,421.5C 248.157,409.46 237.823,397.46 227.5,385.5C 227.573,383.973 226.906,382.973 225.5,382.5C 222.471,379.141 219.471,375.808 216.5,372.5C 216.262,370.596 215.262,369.262 213.5,368.5C 212.833,367.167 211.833,366.167 210.5,365.5C 210.262,363.596 209.262,362.262 207.5,361.5C 207.167,360.5 206.5,359.833 205.5,359.5C 205.573,357.973 204.906,356.973 203.5,356.5C 197.661,350.257 191.994,343.924 186.5,337.5C 186.573,335.973 185.906,334.973 184.5,334.5C 177.863,325.563 170.53,317.23 162.5,309.5C 162.573,307.973 161.906,306.973 160.5,306.5C 160.167,305.5 159.5,304.833 158.5,304.5C 156.57,300.9 153.903,297.9 150.5,295.5C 149.517,280.912 149.184,266.245 149.5,251.5 Z"/></g>
<g><path style="opacity:1" fill="#35779b" d="M 207.5,275.5 C 209.086,276.413 210.586,276.413 212,275.5C 213.039,276.71 214.206,277.71 215.5,278.5C 220.584,283.248 224.917,288.581 228.5,294.5C 227.206,293.71 226.039,292.71 225,291.5C 224.383,292.449 224.549,293.282 225.5,294C 224.906,294.464 224.239,294.631 223.5,294.5C 218.196,288.192 212.863,281.858 207.5,275.5 Z"/></g>
<g><path style="opacity:1" fill="#307aa1" d="M 408.5,279.5 C 404.167,284.833 399.833,290.167 395.5,295.5C 394.167,294.833 392.833,294.167 391.5,293.5C 394.152,289.518 397.152,285.851 400.5,282.5C 402.567,281.737 404.234,280.404 405.5,278.5C 406.417,279.127 407.417,279.461 408.5,279.5 Z"/></g>
<g><path style="opacity:1" fill="#327ea6" d="M 628.5,273.5 C 630.394,274.048 632.06,275.048 633.5,276.5C 634.183,276.137 634.85,275.804 635.5,275.5C 640.887,278.554 644.887,282.887 647.5,288.5C 645.614,288.653 643.614,288.32 641.5,287.5C 637.167,282.833 632.833,278.167 628.5,273.5 Z"/></g>
<g><path style="opacity:1" fill="#387394" d="M 641.5,287.5 C 643.614,288.32 645.614,288.653 647.5,288.5C 653.006,294.163 657.006,300.83 659.5,308.5C 658.069,308.119 657.236,307.119 657,305.5C 656.764,307.119 655.931,308.119 654.5,308.5C 651.382,300.722 647.049,293.722 641.5,287.5 Z"/></g>
<g><path style="opacity:1" fill="#c0c1c2" d="M 150.5,295.5 C 153.903,297.9 156.57,300.9 158.5,304.5C 155.097,302.1 152.43,299.1 150.5,295.5 Z"/></g>
<g><path style="opacity:1" fill="#366b8c" d="M 391.5,293.5 C 392.833,294.167 394.167,294.833 395.5,295.5C 390.137,301.858 384.804,308.192 379.5,314.5C 377.451,314.294 377.117,313.461 378.5,312C 377.906,311.536 377.239,311.369 376.5,311.5C 381.53,305.475 386.53,299.475 391.5,293.5 Z"/></g>
<g><path style="opacity:1" fill="#356684" d="M 228.5,294.5 C 233.584,299.248 237.917,304.581 241.5,310.5C 240.542,310.047 239.708,309.381 239,308.5C 238.383,309.449 238.549,310.282 239.5,311C 238.906,311.464 238.239,311.631 237.5,311.5C 232.833,305.833 228.167,300.167 223.5,294.5C 224.239,294.631 224.906,294.464 225.5,294C 224.549,293.282 224.383,292.449 225,291.5C 226.039,292.71 227.206,293.71 228.5,294.5 Z"/></g>
<g><path style="opacity:1" fill="#babcbb" d="M 160.5,306.5 C 161.906,306.973 162.573,307.973 162.5,309.5C 161.094,309.027 160.427,308.027 160.5,306.5 Z"/></g>
<g><path style="opacity:1" fill="#839dab" d="M 661.5,313.5 C 662.537,314.93 663.204,316.597 663.5,318.5C 661.787,317.365 661.12,315.698 661.5,313.5 Z"/></g>
<g><path style="opacity:1" fill="#335971" d="M 659.5,308.5 C 659.893,310.284 660.559,311.95 661.5,313.5C 661.12,315.698 661.787,317.365 663.5,318.5C 664.503,323.173 665.503,327.839 666.5,332.5C 665.978,334.219 664.978,335.552 663.5,336.5C 661.113,327.038 658.113,317.705 654.5,308.5C 655.931,308.119 656.764,307.119 657,305.5C 657.236,307.119 658.069,308.119 659.5,308.5 Z"/></g>
<g><path style="opacity:1" fill="#3a596f" d="M 376.5,311.5 C 377.239,311.369 377.906,311.536 378.5,312C 377.117,313.461 377.451,314.294 379.5,314.5C 373.5,321.833 367.5,329.167 361.5,336.5C 360.957,336.44 360.624,336.107 360.5,335.5C 361.441,333.228 362.774,331.228 364.5,329.5C 364.376,328.893 364.043,328.56 363.5,328.5C 367.426,322.567 371.759,316.901 376.5,311.5 Z"/></g>
<g><path style="opacity:1" fill="#385a71" d="M 241.5,310.5 C 249.179,318.848 256.513,327.515 263.5,336.5C 261.973,336.427 260.973,337.094 260.5,338.5C 252.488,329.819 244.821,320.819 237.5,311.5C 238.239,311.631 238.906,311.464 239.5,311C 238.549,310.282 238.383,309.449 239,308.5C 239.708,309.381 240.542,310.047 241.5,310.5 Z"/></g>
<g><path style="opacity:1" fill="#3d4043" d="M 468.5,321.5 C 469.494,331.319 469.827,341.319 469.5,351.5C 493.339,351.831 517.006,351.498 540.5,350.5C 540.5,350.167 540.5,349.833 540.5,349.5C 542.313,346.353 544.98,344.353 548.5,343.5C 552.099,342.656 555.766,342.323 559.5,342.5C 565.43,344.098 569.43,347.765 571.5,353.5C 571.731,357.993 571.064,362.326 569.5,366.5C 568.512,367.795 567.512,369.128 566.5,370.5C 564.847,370.66 563.514,371.326 562.5,372.5C 554.212,376.255 547.212,374.589 541.5,367.5C 541.672,366.508 541.338,365.842 540.5,365.5C 517.006,364.502 493.339,364.169 469.5,364.5C 469.5,393.5 469.5,422.5 469.5,451.5C 467.192,461.247 465.859,471.247 465.5,481.5C 464.676,485.312 464.176,489.312 464,493.5C 463.814,491.1 463.314,488.766 462.5,486.5C 461.074,489.768 459.407,492.935 457.5,496C 453.761,494.235 450.594,495.402 448,499.5C 448,498.167 448,496.833 448,495.5C 444.74,495.761 441.406,495.761 438,495.5C 436.441,496.029 434.941,496.696 433.5,497.5C 432.033,497.277 430.533,496.944 429,496.5C 427.309,499.131 426.142,498.797 425.5,495.5C 424.5,496.167 423.5,496.833 422.5,497.5C 420.6,496.342 418.933,495.675 417.5,495.5C 418.313,494.186 419.313,493.019 420.5,492C 419.241,491.077 417.908,490.243 416.5,489.5C 417.002,488.284 417.335,487.117 417.5,486C 416.7,481.92 416.2,477.753 416,473.5C 415.818,479.897 415.152,486.23 414,492.5C 413.333,481.167 413.333,469.833 414,458.5C 414.009,454.312 414.843,450.145 416.5,446C 415.74,444.559 415.074,443.059 414.5,441.5C 415.19,438.932 415.523,436.432 415.5,434C 412.383,428.131 411.383,421.965 412.5,415.5C 412.154,414.304 411.654,414.304 411,415.5C 410.667,420.833 410.333,426.167 410,431.5C 409.827,425.652 409.327,419.985 408.5,414.5C 407.678,412.45 406.678,412.783 405.5,415.5C 404.197,417.142 402.864,418.809 401.5,420.5C 400.167,421.167 399.167,422.167 398.5,423.5C 386.874,437.794 374.874,451.794 362.5,465.5C 361.508,473.316 361.174,481.316 361.5,489.5C 360.778,489.918 360.278,490.584 360,491.5C 359.641,488.456 358.974,488.122 358,490.5C 357.259,489.359 356.425,489.359 355.5,490.5C 354.186,489.687 353.019,488.687 352,487.5C 351.098,489.927 350.264,492.26 349.5,494.5C 348.868,482.746 349.535,471.246 351.5,460C 350.748,459.329 350.414,458.496 350.5,457.5C 351.806,455.527 353.473,453.861 355.5,452.5C 357.587,451.415 358.92,449.749 359.5,447.5C 359.833,446.5 360.5,445.833 361.5,445.5C 363.914,444.089 365.581,442.089 366.5,439.5C 366.833,438.5 367.5,437.833 368.5,437.5C 370.587,436.415 371.92,434.749 372.5,432.5C 373.167,431.167 374.167,430.167 375.5,429.5C 377.587,428.415 378.92,426.749 379.5,424.5C 379.833,423.5 380.5,422.833 381.5,422.5C 382.906,422.027 383.573,421.027 383.5,419.5C 390.608,410.938 397.941,402.605 405.5,394.5C 409.234,391.769 412.234,388.436 414.5,384.5C 417.243,382.761 419.243,380.427 420.5,377.5C 423.243,375.761 425.243,373.427 426.5,370.5C 428.372,367.418 430.705,364.751 433.5,362.5C 435.914,361.089 437.581,359.089 438.5,356.5C 440.273,353.94 442.273,351.607 444.5,349.5C 446.587,348.415 447.92,346.749 448.5,344.5C 451.158,340.843 454.158,337.509 457.5,334.5C 459.587,333.415 460.92,331.749 461.5,329.5C 463.843,326.793 466.177,324.126 468.5,321.5 Z"/></g>
<g><path style="opacity:1" fill="#3d4143" d="M 151.5,321.5 C 161.177,331.845 170.51,342.512 179.5,353.5C 180.08,355.749 181.413,357.415 183.5,358.5C 185.167,359.5 186.5,360.833 187.5,362.5C 187.738,364.404 188.738,365.738 190.5,366.5C 193.471,369.808 196.471,373.141 199.5,376.5C 199.427,378.027 200.094,379.027 201.5,379.5C 205.525,382.558 208.858,386.225 211.5,390.5C 212.08,392.749 213.413,394.415 215.5,395.5C 217.167,396.5 218.5,397.833 219.5,399.5C 219.427,401.027 220.094,402.027 221.5,402.5C 235.844,418.178 249.844,434.178 263.5,450.5C 263.738,452.404 264.738,453.738 266.5,454.5C 268.587,455.585 269.92,457.251 270.5,459.5C 270.5,465.833 270.5,472.167 270.5,478.5C 269.686,480.631 269.186,482.964 269,485.5C 268.667,484.833 268.333,484.167 268,483.5C 264.08,486.066 261.08,485.066 259,480.5C 258.826,475.649 258.326,470.982 257.5,466.5C 253.868,461.533 249.868,456.867 245.5,452.5C 245.262,450.596 244.262,449.262 242.5,448.5C 242.167,447.5 241.5,446.833 240.5,446.5C 239.243,443.573 237.243,441.239 234.5,439.5C 233.92,437.251 232.587,435.585 230.5,434.5C 230.167,433.5 229.5,432.833 228.5,432.5C 228.262,430.596 227.262,429.262 225.5,428.5C 222.138,424.808 218.805,421.141 215.5,417.5C 215.068,416.29 214.401,415.29 213.5,414.5C 213.5,413.833 213.167,413.5 212.5,413.5C 212.44,412.957 212.107,412.624 211.5,412.5C 210.668,422.149 210.168,431.816 210,441.5C 209.505,439.527 209.338,437.527 209.5,435.5C 209.666,429.158 209.5,422.825 209,416.5C 208.444,414.405 207.944,414.238 207.5,416C 208.85,419.888 208.684,423.721 207,427.5C 206.667,448.167 206.333,468.833 206,489.5C 204.908,486.956 204.241,484.289 204,481.5C 203.448,486.25 202.615,490.916 201.5,495.5C 199.61,496.424 198.11,497.757 197,499.5C 196.453,494.652 195.12,494.318 193,498.5C 192.308,497.975 191.808,497.308 191.5,496.5C 192.428,495.232 192.595,493.899 192,492.5C 190.812,493.563 190.312,494.897 190.5,496.5C 188.43,496.449 186.597,497.115 185,498.5C 184.5,498.333 184,498.167 183.5,498C 185.158,497.275 185.658,496.108 185,494.5C 184.261,495.574 183.261,496.241 182,496.5C 181.454,495.711 180.787,494.711 180,493.5C 178.36,497.34 176.86,497.34 175.5,493.5C 174.12,494.976 172.453,495.976 170.5,496.5C 170.5,495.5 170.5,494.5 170.5,493.5C 168.742,494.128 167.242,495.128 166,496.5C 166,495.167 166,493.833 166,492.5C 164.989,493.337 163.822,493.67 162.5,493.5C 161.821,489.9 160.987,490.233 160,494.5C 158.212,492.667 158.046,490.667 159.5,488.5C 159.192,487.692 158.692,487.025 158,486.5C 156.908,489.044 156.241,491.711 156,494.5C 155.809,492.292 155.309,490.292 154.5,488.5C 153.834,480.517 153.501,472.517 153.5,464.5C 153.825,457.313 153.491,450.313 152.5,443.5C 152.74,402.825 152.406,362.158 151.5,321.5 Z"/></g>
<g><path style="opacity:1" fill="#a2a3a4" d="M 599.5,328.5 C 599.833,328.5 600.167,328.5 600.5,328.5C 601.11,329.391 601.443,330.391 601.5,331.5C 600.094,331.027 599.427,330.027 599.5,328.5 Z"/></g>
<g><path style="opacity:1" fill="#707576" d="M 461.5,329.5 C 460.92,331.749 459.587,333.415 457.5,334.5C 458.08,332.251 459.413,330.585 461.5,329.5 Z"/></g>
<g><path style="opacity:1" fill="#b7b8b7" d="M 184.5,334.5 C 185.906,334.973 186.573,335.973 186.5,337.5C 185.094,337.027 184.427,336.027 184.5,334.5 Z"/></g>
<g><path style="opacity:1" fill="#abacad" d="M 601.5,331.5 C 604.334,335.664 606.001,340.331 606.5,345.5C 604.303,341.089 602.636,336.422 601.5,331.5 Z"/></g>
<g><path style="opacity:1" fill="#33393b" d="M 151.5,321.5 C 152.406,362.158 152.74,402.825 152.5,443.5C 151.833,443.167 151.167,442.833 150.5,442.5C 150.168,401.997 150.501,361.663 151.5,321.5 Z"/></g>
<g><path style="opacity:1" fill="#6e7274" d="M 559.5,342.5 C 555.766,342.323 552.099,342.656 548.5,343.5C 548.611,342.883 548.944,342.383 549.5,342C 553.027,341.192 556.36,341.359 559.5,342.5 Z"/></g>
<g><path style="opacity:1" fill="#3e4b57" d="M 363.5,328.5 C 364.043,328.56 364.376,328.893 364.5,329.5C 362.774,331.228 361.441,333.228 360.5,335.5C 360.624,336.107 360.957,336.44 361.5,336.5C 355.084,345.089 348.084,353.255 340.5,361C 339.041,360.645 337.707,360.811 336.5,361.5C 339.477,357.675 342.311,353.675 345,349.5C 351.184,342.428 357.351,335.428 363.5,328.5 Z"/></g>
<g><path style="opacity:1" fill="#818686" d="M 448.5,344.5 C 447.92,346.749 446.587,348.415 444.5,349.5C 445.08,347.251 446.413,345.585 448.5,344.5 Z"/></g>
<g><path style="opacity:1" fill="#e6e8e8" d="M 468.5,320.5 C 469.209,319.596 470.209,319.263 471.5,319.5C 471.5,329.5 471.5,339.5 471.5,349.5C 494.5,349.5 517.5,349.5 540.5,349.5C 540.5,349.833 540.5,350.167 540.5,350.5C 517.167,350.5 493.833,350.5 470.5,350.5C 471.141,340.111 470.474,330.111 468.5,320.5 Z"/></g>
<g><path style="opacity:1" fill="#7e8386" d="M 468.5,321.5 C 468.5,321.167 468.5,320.833 468.5,320.5C 470.474,330.111 471.141,340.111 470.5,350.5C 493.833,350.5 517.167,350.5 540.5,350.5C 517.006,351.498 493.339,351.831 469.5,351.5C 469.827,341.319 469.494,331.319 468.5,321.5 Z"/></g>
<g><path style="opacity:1" fill="#586772" d="M 667.5,338.5 C 668.166,343.823 668.499,349.323 668.5,355C 668.693,363.06 668.027,370.893 666.5,378.5C 667.333,365.185 667.666,351.851 667.5,338.5 Z"/></g>
<g><path style="opacity:1" fill="#717375" d="M 179.5,353.5 C 181.587,354.585 182.92,356.251 183.5,358.5C 181.413,357.415 180.08,355.749 179.5,353.5 Z"/></g>
<g><path style="opacity:1" fill="#999a9c" d="M 606.5,348.5 C 607.652,353.985 607.818,359.651 607,365.5C 606.698,369.245 605.531,372.578 603.5,375.5C 605.955,366.679 606.955,357.679 606.5,348.5 Z"/></g>
<g><path style="opacity:1" fill="#b5b7b6" d="M 571.5,353.5 C 572.638,356.304 572.805,359.304 572,362.5C 571.8,364.32 570.966,365.653 569.5,366.5C 571.064,362.326 571.731,357.993 571.5,353.5 Z"/></g>
<g><path style="opacity:1" fill="#a8a9a9" d="M 203.5,356.5 C 204.906,356.973 205.573,357.973 205.5,359.5C 204.094,359.027 203.427,358.027 203.5,356.5 Z"/></g>
<g><path style="opacity:1" fill="#7a7d7d" d="M 438.5,356.5 C 437.581,359.089 435.914,361.089 433.5,362.5C 434.419,359.911 436.086,357.911 438.5,356.5 Z"/></g>
<g><path style="opacity:1" fill="#b8bab9" d="M 207.5,361.5 C 209.262,362.262 210.262,363.596 210.5,365.5C 208.738,364.738 207.738,363.404 207.5,361.5 Z"/></g>
<g><path style="opacity:1" fill="#7f8282" d="M 187.5,362.5 C 189.262,363.262 190.262,364.596 190.5,366.5C 188.738,365.738 187.738,364.404 187.5,362.5 Z"/></g>
<g><path style="opacity:1" fill="#b5b6b6" d="M 213.5,368.5 C 215.262,369.262 216.262,370.596 216.5,372.5C 214.738,371.738 213.738,370.404 213.5,368.5 Z"/></g>
<g><path style="opacity:1" fill="#3a4854" d="M 263.5,336.5 C 276.594,353.017 289.927,369.35 303.5,385.5C 303.657,386.873 303.49,388.207 303,389.5C 301,387.5 299,385.5 297,383.5C 284.597,368.607 272.43,353.607 260.5,338.5C 260.973,337.094 261.973,336.427 263.5,336.5 Z"/></g>
<g><path style="opacity:1" fill="#9d9e9e" d="M 566.5,370.5 C 565.713,372.104 564.38,372.771 562.5,372.5C 563.514,371.326 564.847,370.66 566.5,370.5 Z"/></g>
<g><path style="opacity:1" fill="#717577" d="M 426.5,370.5 C 425.243,373.427 423.243,375.761 420.5,377.5C 421.757,374.573 423.757,372.239 426.5,370.5 Z"/></g>
<g><path style="opacity:1" fill="#717980" d="M 151.5,320.5 C 151.5,320.833 151.5,321.167 151.5,321.5C 150.501,361.663 150.168,401.997 150.5,442.5C 150.5,454.5 150.5,466.5 150.5,478.5C 150.5,483.833 150.5,489.167 150.5,494.5C 150.167,494.5 149.833,494.5 149.5,494.5C 148.837,436.157 149.504,378.157 151.5,320.5 Z"/></g>
<g><path style="opacity:1" fill="#777a7b" d="M 199.5,376.5 C 200.906,376.973 201.573,377.973 201.5,379.5C 200.094,379.027 199.427,378.027 199.5,376.5 Z"/></g>
<g><path style="opacity:1" fill="#6a7073" d="M 420.5,377.5 C 419.243,380.427 417.243,382.761 414.5,384.5C 415.757,381.573 417.757,379.239 420.5,377.5 Z"/></g>
<g><path style="opacity:1" fill="#b7b8b7" d="M 225.5,382.5 C 226.906,382.973 227.573,383.973 227.5,385.5C 226.094,385.027 225.427,384.027 225.5,382.5 Z"/></g>
<g><path style="opacity:1" fill="#b3b4b5" d="M 318.5,383.5 C 320.262,384.262 321.262,385.596 321.5,387.5C 319.738,386.738 318.738,385.404 318.5,383.5 Z"/></g>
<g><path style="opacity:1" fill="#9ea3a4" d="M 665.5,384.5 C 665.741,386.898 665.074,388.898 663.5,390.5C 663.595,388.214 664.262,386.214 665.5,384.5 Z"/></g>
<g><path style="opacity:1" fill="#cbd4d7" d="M 151.5,320.5 C 149.504,378.157 148.837,436.157 149.5,494.5C 149.5,505.833 149.5,517.167 149.5,528.5C 149.5,545.167 149.5,561.833 149.5,578.5C 148.501,492.335 148.167,406.002 148.5,319.5C 149.791,319.263 150.791,319.596 151.5,320.5 Z"/></g>
<g><path style="opacity:1" fill="#7e8081" d="M 211.5,390.5 C 213.587,391.585 214.92,393.251 215.5,395.5C 213.413,394.415 212.08,392.749 211.5,390.5 Z"/></g>
<g><path style="opacity:1" fill="#b6b8b8" d="M 387.5,390.5 C 387.262,392.404 386.262,393.738 384.5,394.5C 384.738,392.596 385.738,391.262 387.5,390.5 Z"/></g>
<g><path style="opacity:1" fill="#b9babc" d="M 325.5,391.5 C 327.262,392.262 328.262,393.596 328.5,395.5C 326.738,394.738 325.738,393.404 325.5,391.5 Z"/></g>
<g><path style="opacity:1" fill="#7c8082" d="M 414.5,384.5 C 412.234,388.436 409.234,391.769 405.5,394.5C 407.766,390.564 410.766,387.231 414.5,384.5 Z"/></g>
<g><path style="opacity:1" fill="#7b7e82" d="M 584.5,396.5 C 584.027,397.906 583.027,398.573 581.5,398.5C 581.973,397.094 582.973,396.427 584.5,396.5 Z"/></g>
<g><path style="opacity:1" fill="#858787" d="M 219.5,399.5 C 220.906,399.973 221.573,400.973 221.5,402.5C 220.094,402.027 219.427,401.027 219.5,399.5 Z"/></g>
<g><path style="opacity:1" fill="#b6b7b7" d="M 337.5,405.5 C 339.262,406.262 340.262,407.596 340.5,409.5C 338.738,408.738 337.738,407.404 337.5,405.5 Z"/></g>
<g><path style="opacity:1" fill="#e6e9ea" d="M 540.5,365.5 C 541.338,365.842 541.672,366.508 541.5,367.5C 518.242,366.511 494.908,366.177 471.5,366.5C 471.833,437.335 471.499,508.002 470.5,578.5C 470.5,564.167 470.5,549.833 470.5,535.5C 470.5,520.833 470.5,506.167 470.5,491.5C 470.5,449.5 470.5,407.5 470.5,365.5C 493.833,365.5 517.167,365.5 540.5,365.5 Z"/></g>
<g><path style="opacity:1" fill="#787d83" d="M 325.5,411.5 C 326.906,411.973 327.573,412.973 327.5,414.5C 326.094,414.027 325.427,413.027 325.5,411.5 Z"/></g>
<g><path style="opacity:1" fill="#afb0ad" d="M 655.5,410.5 C 655.573,412.027 654.906,413.027 653.5,413.5C 653.427,411.973 654.094,410.973 655.5,410.5 Z"/></g>
<g><path style="opacity:1" fill="#a2a3a4" d="M 345.5,414.5 C 346.906,414.973 347.573,415.973 347.5,417.5C 346.094,417.027 345.427,416.027 345.5,414.5 Z"/></g>
<g><path style="opacity:1" fill="#384755" d="M 666.5,332.5 C 667.461,334.265 667.795,336.265 667.5,338.5C 667.666,351.851 667.333,365.185 666.5,378.5C 665.85,380.435 665.517,382.435 665.5,384.5C 664.262,386.214 663.595,388.214 663.5,390.5C 661.032,397.235 658.365,403.902 655.5,410.5C 654.094,410.973 653.427,411.973 653.5,413.5C 648.782,420.91 643.116,427.576 636.5,433.5C 634.075,433.316 634.075,432.649 636.5,431.5C 636.043,430.702 635.376,430.369 634.5,430.5C 639.184,425.815 643.518,420.815 647.5,415.5C 651.565,410.036 654.565,404.036 656.5,397.5C 659.753,390.186 662.253,382.519 664,374.5C 664.731,361.812 664.565,349.145 663.5,336.5C 664.978,335.552 665.978,334.219 666.5,332.5 Z"/></g>
<g><path style="opacity:1" fill="#b8b9b9" d="M 349.5,419.5 C 351.262,420.262 352.262,421.596 352.5,423.5C 350.738,422.738 349.738,421.404 349.5,419.5 Z"/></g>
<g><path style="opacity:1" fill="#787c7d" d="M 383.5,419.5 C 383.573,421.027 382.906,422.027 381.5,422.5C 381.427,420.973 382.094,419.973 383.5,419.5 Z"/></g>
<g><path style="opacity:1" fill="#b2b4b4" d="M 258.5,421.5 C 260.587,422.585 261.92,424.251 262.5,426.5C 260.413,425.415 259.08,423.749 258.5,421.5 Z"/></g>
<g><path style="opacity:1" fill="#b0b5b7" d="M 401.5,420.5 C 401.5,422.5 400.5,423.5 398.5,423.5C 399.167,422.167 400.167,421.167 401.5,420.5 Z"/></g>
<g><path style="opacity:1" fill="#707677" d="M 379.5,424.5 C 378.92,426.749 377.587,428.415 375.5,429.5C 376.08,427.251 377.413,425.585 379.5,424.5 Z"/></g>
<g><path style="opacity:1" fill="#b1b5b5" d="M 225.5,428.5 C 227.262,429.262 228.262,430.596 228.5,432.5C 226.738,431.738 225.738,430.404 225.5,428.5 Z"/></g>
<g><path style="opacity:1" fill="#bcbfbe" d="M 230.5,434.5 C 232.587,435.585 233.92,437.251 234.5,439.5C 232.413,438.415 231.08,436.749 230.5,434.5 Z"/></g>
<g><path style="opacity:1" fill="#777c7e" d="M 372.5,432.5 C 371.92,434.749 370.587,436.415 368.5,437.5C 369.08,435.251 370.413,433.585 372.5,432.5 Z"/></g>
<g><path style="opacity:1" fill="#c3c7c6" d="M 234.5,439.5 C 237.243,441.239 239.243,443.573 240.5,446.5C 237.757,444.761 235.757,442.427 234.5,439.5 Z"/></g>
<g><path style="opacity:1" fill="#747a7d" d="M 366.5,439.5 C 365.581,442.089 363.914,444.089 361.5,445.5C 362.419,442.911 364.086,440.911 366.5,439.5 Z"/></g>
<g><path style="opacity:1" fill="#a6c3cb" d="M 212.5,413.5 C 213.167,413.5 213.5,413.833 213.5,414.5C 212.833,468.833 212.167,523.167 211.5,577.5C 211.5,573.833 211.5,570.167 211.5,566.5C 211.5,560.167 211.5,553.833 211.5,547.5C 211.5,539.5 211.5,531.5 211.5,523.5C 211.5,513.167 211.5,502.833 211.5,492.5C 211.5,482.5 211.5,472.5 211.5,462.5C 211.17,445.991 211.504,429.658 212.5,413.5 Z"/></g>
<g><path style="opacity:1" fill="#bdc0c0" d="M 344.5,441.5 C 343.92,443.749 342.587,445.415 340.5,446.5C 341.08,444.251 342.413,442.585 344.5,441.5 Z"/></g>
<g><path style="opacity:1" fill="#899aa0" d="M 408.5,414.5 C 408.5,429.5 408.5,444.5 408.5,459.5C 408.5,466.167 408.5,472.833 408.5,479.5C 408.5,485.5 408.5,491.5 408.5,497.5C 408.5,499.833 408.5,502.167 408.5,504.5C 408.167,504.5 407.833,504.5 407.5,504.5C 408.159,474.481 407.492,444.815 405.5,415.5C 406.678,412.783 407.678,412.45 408.5,414.5 Z"/></g>
<g><path style="opacity:1" fill="#7b848a" d="M 540.5,365.5 C 517.167,365.5 493.833,365.5 470.5,365.5C 470.5,407.5 470.5,449.5 470.5,491.5C 470.167,491.5 469.833,491.5 469.5,491.5C 469.5,487.167 469.5,482.833 469.5,478.5C 469.5,469.5 469.5,460.5 469.5,451.5C 469.5,422.5 469.5,393.5 469.5,364.5C 493.339,364.169 517.006,364.502 540.5,365.5 Z"/></g>
<g><path style="opacity:1" fill="#b5b5b5" d="M 279.5,446.5 C 281.262,447.262 282.262,448.596 282.5,450.5C 280.738,449.738 279.738,448.404 279.5,446.5 Z"/></g>
<g><path style="opacity:1" fill="#b2bec1" d="M 621.5,446.5 C 621.027,447.906 620.027,448.573 618.5,448.5C 618.973,447.094 619.973,446.427 621.5,446.5 Z"/></g>
<g><path style="opacity:1" fill="#b7bbbb" d="M 242.5,448.5 C 244.262,449.262 245.262,450.596 245.5,452.5C 243.738,451.738 242.738,450.404 242.5,448.5 Z"/></g>
<g><path style="opacity:1" fill="#394954" d="M 212.5,413.5 C 211.504,429.658 211.17,445.991 211.5,462.5C 210.671,469.989 210.171,477.656 210,485.5C 209.667,481.5 209.333,477.5 209,473.5C 208.821,477.025 208.321,480.359 207.5,483.5C 207.085,467.297 207.751,451.297 209.5,435.5C 209.338,437.527 209.505,439.527 210,441.5C 210.168,431.816 210.668,422.149 211.5,412.5C 212.107,412.624 212.44,412.957 212.5,413.5 Z"/></g>
<g><path style="opacity:1" fill="#b6b9b9" d="M 337.5,449.5 C 337.573,451.027 336.906,452.027 335.5,452.5C 335.427,450.973 336.094,449.973 337.5,449.5 Z"/></g>
<g><path style="opacity:1" fill="#7b7e80" d="M 359.5,447.5 C 358.92,449.749 357.587,451.415 355.5,452.5C 356.08,450.251 357.413,448.585 359.5,447.5 Z"/></g>
<g><path style="opacity:1" fill="#7c7f7f" d="M 263.5,450.5 C 265.262,451.262 266.262,452.596 266.5,454.5C 264.738,453.738 263.738,452.404 263.5,450.5 Z"/></g>
<g><path style="opacity:1" fill="#c2cccf" d="M 614.5,450.5 C 613.393,452.969 611.393,453.969 608.5,453.5C 610.181,451.992 612.181,450.992 614.5,450.5 Z"/></g>
<g><path style="opacity:1" fill="#b0bbbf" d="M 608.5,453.5 C 606.967,455.245 604.967,456.245 602.5,456.5C 604.033,454.755 606.033,453.755 608.5,453.5 Z"/></g>
<g><path style="opacity:1" fill="#394d5c" d="M 634.5,430.5 C 635.376,430.369 636.043,430.702 636.5,431.5C 634.075,432.649 634.075,433.316 636.5,433.5C 631.795,438.207 626.795,442.54 621.5,446.5C 619.973,446.427 618.973,447.094 618.5,448.5C 616.847,448.66 615.514,449.326 614.5,450.5C 612.181,450.992 610.181,451.992 608.5,453.5C 606.033,453.755 604.033,454.755 602.5,456.5C 600.102,456.259 598.102,456.926 596.5,458.5C 596.167,458.5 595.833,458.5 595.5,458.5C 591.675,458.885 588.009,459.885 584.5,461.5C 584.863,462.183 585.196,462.85 585.5,463.5C 585.5,465.167 585.5,466.833 585.5,468.5C 583.189,465.233 580.856,461.9 578.5,458.5C 600.241,454.963 618.908,445.629 634.5,430.5 Z"/></g>
<g><path style="opacity:1" fill="#b3b8b9" d="M 331.5,456.5 C 331.573,458.027 330.906,459.027 329.5,459.5C 329.427,457.973 330.094,456.973 331.5,456.5 Z"/></g>
<g><path style="opacity:1" fill="#c4c9cb" d="M 602.5,456.5 C 600.898,458.074 598.898,458.741 596.5,458.5C 598.102,456.926 600.102,456.259 602.5,456.5 Z"/></g>
<g><path style="opacity:1" fill="#364753" d="M 520.5,468.5 C 519.167,468.5 517.833,468.5 516.5,468.5C 515.833,468.167 515.167,467.833 514.5,467.5C 514.262,465.596 513.262,464.262 511.5,463.5C 503.016,462.507 494.349,462.174 485.5,462.5C 485.34,460.801 485.506,459.134 486,457.5C 495.089,458.319 504.256,458.819 513.5,459C 516.051,462.044 518.384,465.211 520.5,468.5 Z"/></g>
<g><path style="opacity:1" fill="#cbd1d4" d="M 595.5,458.5 C 593.11,460.02 590.443,461.02 587.5,461.5C 587.5,462.5 587.5,463.5 587.5,464.5C 586.833,464.167 586.167,463.833 585.5,463.5C 585.196,462.85 584.863,462.183 584.5,461.5C 588.009,459.885 591.675,458.885 595.5,458.5 Z"/></g>
<g><path style="opacity:1" fill="#344554" d="M 150.5,442.5 C 151.167,442.833 151.833,443.167 152.5,443.5C 153.491,450.313 153.825,457.313 153.5,464.5C 152.337,469.137 151.337,473.804 150.5,478.5C 150.5,466.5 150.5,454.5 150.5,442.5 Z"/></g>
<g><path style="opacity:1" fill="#8f9ca2" d="M 484.5,402.5 C 484.17,422.674 484.503,442.674 485.5,462.5C 494.349,462.174 503.016,462.507 511.5,463.5C 502.167,463.5 492.833,463.5 483.5,463.5C 483.17,442.993 483.503,422.66 484.5,402.5 Z"/></g>
<g><path style="opacity:1" fill="#e1e7e9" d="M 483.5,463.5 C 492.833,463.5 502.167,463.5 511.5,463.5C 513.262,464.262 514.262,465.596 514.5,467.5C 513.373,466.878 512.373,466.045 511.5,465C 501.991,464.83 492.658,464.33 483.5,463.5 Z"/></g>
<g><path style="opacity:1" fill="#b8bab9" d="M 294.5,464.5 C 295.833,465.167 296.833,466.167 297.5,467.5C 295.5,467.5 294.5,466.5 294.5,464.5 Z"/></g>
<g><path style="opacity:1" fill="#384c5b" d="M 412.5,477.5 C 411.683,475.031 411.183,472.365 411,469.5C 411.083,473.311 410.25,476.645 408.5,479.5C 408.5,472.833 408.5,466.167 408.5,459.5C 409.117,459.611 409.617,459.944 410,460.5C 410.333,458.167 410.667,455.833 411,453.5C 412.098,461.464 412.598,469.464 412.5,477.5 Z"/></g>
<g><path style="opacity:1" fill="#375265" d="M 516.5,468.5 C 517.833,468.5 519.167,468.5 520.5,468.5C 525.833,475.167 531.167,481.833 536.5,488.5C 536.5,488.833 536.5,489.167 536.5,489.5C 535.222,489.782 534.222,490.449 533.5,491.5C 527.455,484.12 521.788,476.454 516.5,468.5 Z"/></g>
<g><path style="opacity:1" fill="#3c4347" d="M 408.5,414.5 C 409.327,419.985 409.827,425.652 410,431.5C 410.333,426.167 410.667,420.833 411,415.5C 411.654,414.304 412.154,414.304 412.5,415.5C 411.383,421.965 412.383,428.131 415.5,434C 415.523,436.432 415.19,438.932 414.5,441.5C 415.074,443.059 415.74,444.559 416.5,446C 414.843,450.145 414.009,454.312 414,458.5C 413.333,469.833 413.333,481.167 414,492.5C 415.152,486.23 415.818,479.897 416,473.5C 416.2,477.753 416.7,481.92 417.5,486C 417.335,487.117 417.002,488.284 416.5,489.5C 417.908,490.243 419.241,491.077 420.5,492C 419.313,493.019 418.313,494.186 417.5,495.5C 418.933,495.675 420.6,496.342 422.5,497.5C 423.5,496.833 424.5,496.167 425.5,495.5C 426.142,498.797 427.309,499.131 429,496.5C 430.533,496.944 432.033,497.277 433.5,497.5C 434.941,496.696 436.441,496.029 438,495.5C 441.406,495.761 444.74,495.761 448,495.5C 448,496.833 448,498.167 448,499.5C 450.594,495.402 453.761,494.235 457.5,496C 459.407,492.935 461.074,489.768 462.5,486.5C 463.314,488.766 463.814,491.1 464,493.5C 464.176,489.312 464.676,485.312 465.5,481.5C 465.5,488.5 465.5,495.5 465.5,502.5C 464.683,504.969 464.183,507.635 464,510.5C 463,509.167 462,509.167 461,510.5C 460.576,506.81 459.742,506.643 458.5,510C 456.741,510.798 455.074,510.631 453.5,509.5C 454.5,508.833 455.5,508.167 456.5,507.5C 456.333,507.167 456.167,506.833 456,506.5C 453.662,507.84 451.329,509.174 449,510.5C 441.517,510.155 434.017,510.155 426.5,510.5C 426.167,510.167 425.833,509.833 425.5,509.5C 427.766,508.686 430.1,508.186 432.5,508C 428.518,505.719 425.018,506.219 422,509.5C 421,508.833 420,508.167 419,507.5C 417.234,508.233 415.401,508.567 413.5,508.5C 413.784,506.585 413.451,504.919 412.5,503.5C 412.5,503.167 412.5,502.833 412.5,502.5C 412.5,494.167 412.5,485.833 412.5,477.5C 412.598,469.464 412.098,461.464 411,453.5C 410.667,455.833 410.333,458.167 410,460.5C 409.617,459.944 409.117,459.611 408.5,459.5C 408.5,444.5 408.5,429.5 408.5,414.5 Z"/></g>
<g><path style="opacity:1" fill="#35566c" d="M 412.5,477.5 C 412.5,485.833 412.5,494.167 412.5,502.5C 411.673,497.349 411.173,492.016 411,486.5C 410.667,489.833 410.333,493.167 410,496.5C 409.617,497.056 409.117,497.389 408.5,497.5C 408.5,491.5 408.5,485.5 408.5,479.5C 410.25,476.645 411.083,473.311 411,469.5C 411.183,472.365 411.683,475.031 412.5,477.5 Z"/></g>
<g><path style="opacity:1" fill="#35505e" d="M 469.5,451.5 C 469.5,460.5 469.5,469.5 469.5,478.5C 468.59,480.019 467.757,481.685 467,483.5C 466.829,491.344 466.329,499.011 465.5,506.5C 465.5,505.167 465.5,503.833 465.5,502.5C 465.5,495.5 465.5,488.5 465.5,481.5C 465.859,471.247 467.192,461.247 469.5,451.5 Z"/></g>
<g><path style="opacity:1" fill="#33556c" d="M 153.5,464.5 C 153.501,472.517 153.834,480.517 154.5,488.5C 154.5,494.833 154.5,501.167 154.5,507.5C 154.5,512.167 154.5,516.833 154.5,521.5C 154.5,525.833 154.5,530.167 154.5,534.5C 153.532,532.393 153.198,530.059 153.5,527.5C 153.83,521.132 153.496,514.798 152.5,508.5C 151.818,509.243 151.151,509.909 150.5,510.5C 150.5,505.167 150.5,499.833 150.5,494.5C 150.5,489.167 150.5,483.833 150.5,478.5C 151.337,473.804 152.337,469.137 153.5,464.5 Z"/></g>
<g><path style="opacity:1" fill="#3c4347" d="M 592.5,479.5 C 597.591,486.68 602.924,493.68 608.5,500.5C 609.248,502.332 610.248,503.999 611.5,505.5C 611.631,506.239 611.464,506.906 611,507.5C 608.03,505.49 604.863,505.49 601.5,507.5C 599.657,506.061 597.99,506.228 596.5,508C 599.562,508.741 602.562,508.575 605.5,507.5C 605.833,507.833 606.167,508.167 606.5,508.5C 605.167,509.5 603.833,510.5 602.5,511.5C 601.784,510.689 600.95,510.022 600,509.5C 594.023,510.678 588.023,510.678 582,509.5C 580.441,510.029 578.941,510.696 577.5,511.5C 576.627,508.878 574.794,508.878 572,511.5C 570.42,509.203 568.42,508.869 566,510.5C 562.006,507.377 557.506,506.21 552.5,507C 553.774,507.977 553.774,508.811 552.5,509.5C 551.061,507.64 549.395,505.973 547.5,504.5C 544.212,499.214 540.546,494.214 536.5,489.5C 536.5,489.167 536.5,488.833 536.5,488.5C 537.29,487.391 537.79,486.058 538,484.5C 540.653,487.098 543.32,489.764 546,492.5C 546.308,491.692 546.808,491.025 547.5,490.5C 550.036,490.844 552.203,491.844 554,493.5C 555.086,491.153 556.419,491.153 558,493.5C 559.396,492.606 560.896,491.939 562.5,491.5C 565.087,492.407 567.42,491.74 569.5,489.5C 570.251,490.376 570.751,491.376 571,492.5C 572.667,491.167 574.333,489.833 576,488.5C 576.5,489 577,489.5 577.5,490C 575.077,490.732 573.91,492.232 574,494.5C 580.377,490.824 585.377,485.824 589,479.5C 589.853,481.603 591.02,481.603 592.5,479.5 Z"/></g>
<g><path style="opacity:1" fill="#556167" d="M 350.5,457.5 C 350.414,458.496 350.748,459.329 351.5,460C 349.535,471.246 348.868,482.746 349.5,494.5C 349.5,500.167 349.5,505.833 349.5,511.5C 349.167,511.5 348.833,511.5 348.5,511.5C 348.333,494.163 348.5,476.83 349,459.5C 349.278,458.584 349.778,457.918 350.5,457.5 Z"/></g>
<g><path style="opacity:1" fill="#3b4247" d="M 209.5,435.5 C 207.751,451.297 207.085,467.297 207.5,483.5C 207.5,489.5 207.5,495.5 207.5,501.5C 206.523,504.287 206.19,507.287 206.5,510.5C 205.034,509.653 204.2,508.32 204,506.5C 203,507.833 202,509.167 201,510.5C 199.434,509.939 198.101,510.606 197,512.5C 196.667,510.833 196.333,509.167 196,507.5C 193.667,509.5 191.333,511.5 189,513.5C 188.383,512.551 188.549,511.718 189.5,511C 186.163,511.165 182.663,510.999 179,510.5C 175.806,510.59 172.973,511.59 170.5,513.5C 169.396,512.369 169.729,511.535 171.5,511C 169.717,510.768 168.05,511.268 166.5,512.5C 165.214,512.148 164.381,511.482 164,510.5C 163.5,510.667 163,510.833 162.5,511C 163.711,511.893 163.711,512.726 162.5,513.5C 161.614,512.675 161.281,511.675 161.5,510.5C 160.5,510.5 159.5,510.5 158.5,510.5C 158.775,505.78 157.941,505.446 156,509.5C 155.722,508.584 155.222,507.918 154.5,507.5C 154.5,501.167 154.5,494.833 154.5,488.5C 155.309,490.292 155.809,492.292 156,494.5C 156.241,491.711 156.908,489.044 158,486.5C 158.692,487.025 159.192,487.692 159.5,488.5C 158.046,490.667 158.212,492.667 160,494.5C 160.987,490.233 161.821,489.9 162.5,493.5C 163.822,493.67 164.989,493.337 166,492.5C 166,493.833 166,495.167 166,496.5C 167.242,495.128 168.742,494.128 170.5,493.5C 170.5,494.5 170.5,495.5 170.5,496.5C 172.453,495.976 174.12,494.976 175.5,493.5C 176.86,497.34 178.36,497.34 180,493.5C 180.787,494.711 181.454,495.711 182,496.5C 183.261,496.241 184.261,495.574 185,494.5C 185.658,496.108 185.158,497.275 183.5,498C 184,498.167 184.5,498.333 185,498.5C 186.597,497.115 188.43,496.449 190.5,496.5C 190.312,494.897 190.812,493.563 192,492.5C 192.595,493.899 192.428,495.232 191.5,496.5C 191.808,497.308 192.308,497.975 193,498.5C 195.12,494.318 196.453,494.652 197,499.5C 198.11,497.757 199.61,496.424 201.5,495.5C 202.615,490.916 203.448,486.25 204,481.5C 204.241,484.289 204.908,486.956 206,489.5C 206.333,468.833 206.667,448.167 207,427.5C 208.684,423.721 208.85,419.888 207.5,416C 207.944,414.238 208.444,414.405 209,416.5C 209.5,422.825 209.666,429.158 209.5,435.5 Z"/></g>
<g><path style="opacity:1" fill="#364851" d="M 257.5,466.5 C 258.326,470.982 258.826,475.649 259,480.5C 261.08,485.066 264.08,486.066 268,483.5C 268.333,484.167 268.667,484.833 269,485.5C 269.186,482.964 269.686,480.631 270.5,478.5C 270.667,489.172 270.5,499.839 270,510.5C 269.667,504.5 269.333,498.5 269,492.5C 266.073,493.042 263.24,492.375 260.5,490.5C 259.679,493.447 259.179,496.447 259,499.5C 258.826,494.649 258.326,489.982 257.5,485.5C 257.5,479.167 257.5,472.833 257.5,466.5 Z"/></g>
<g><path style="opacity:1" fill="#335b74" d="M 585.5,463.5 C 586.167,463.833 586.833,464.167 587.5,464.5C 593.5,473.167 599.5,481.833 605.5,490.5C 606.439,493.803 607.439,497.136 608.5,500.5C 602.924,493.68 597.591,486.68 592.5,479.5C 589.906,475.974 587.573,472.308 585.5,468.5C 585.5,466.833 585.5,465.167 585.5,463.5 Z"/></g>
<g><path style="opacity:1" fill="#bcc8cb" d="M 271.5,459.5 C 272.179,477.069 272.846,494.735 273.5,512.5C 271.514,495.198 270.847,477.532 271.5,459.5 Z"/></g>
<g><path style="opacity:1" fill="#375b70" d="M 211.5,462.5 C 211.5,472.5 211.5,482.5 211.5,492.5C 210.674,497.316 210.174,502.316 210,507.5C 209.667,506.167 209.333,504.833 209,503.5C 208.814,506.036 208.314,508.369 207.5,510.5C 207.5,507.5 207.5,504.5 207.5,501.5C 207.5,495.5 207.5,489.5 207.5,483.5C 208.321,480.359 208.821,477.025 209,473.5C 209.333,477.5 209.667,481.5 210,485.5C 210.171,477.656 210.671,469.989 211.5,462.5 Z"/></g>
<g><path style="opacity:1" fill="#325f7a" d="M 536.5,489.5 C 540.546,494.214 544.212,499.214 547.5,504.5C 546.167,504.833 544.833,505.167 543.5,505.5C 539.779,501.112 536.445,496.445 533.5,491.5C 534.222,490.449 535.222,489.782 536.5,489.5 Z"/></g>
<g><path style="opacity:1" fill="#384e59" d="M 315.5,497.5 C 315.666,503.842 315.5,510.175 315,516.5C 314.503,513.854 314.336,511.187 314.5,508.5C 312.516,508.383 310.85,509.05 309.5,510.5C 308.5,509.833 307.5,509.167 306.5,508.5C 306.08,511.616 305.08,514.283 303.5,516.5C 303.5,508.167 303.5,499.833 303.5,491.5C 304.222,491.918 304.722,492.584 305,493.5C 305.219,492.062 305.719,490.729 306.5,489.5C 308.881,491.769 311.381,491.769 314,489.5C 314.567,492.168 315.067,494.834 315.5,497.5 Z"/></g>
<g><path style="opacity:1" fill="#394d58" d="M 361.5,489.5 C 361.831,496.863 361.497,504.197 360.5,511.5C 359.614,510.675 359.281,509.675 359.5,508.5C 358.178,508.67 357.011,508.337 356,507.5C 353.929,510.416 352.595,510.082 352,506.5C 351.243,508.315 350.41,509.981 349.5,511.5C 349.5,505.833 349.5,500.167 349.5,494.5C 350.264,492.26 351.098,489.927 352,487.5C 353.019,488.687 354.186,489.687 355.5,490.5C 356.425,489.359 357.259,489.359 358,490.5C 358.974,488.122 359.641,488.456 360,491.5C 360.278,490.584 360.778,489.918 361.5,489.5 Z"/></g>
<g><path style="opacity:1" fill="#2f647e" d="M 469.5,478.5 C 469.5,482.833 469.5,487.167 469.5,491.5C 469.5,495.5 469.5,499.5 469.5,503.5C 467.87,505.026 467.037,507.026 467,509.5C 466.501,514.823 466.334,520.156 466.5,525.5C 466.826,533.684 466.492,541.684 465.5,549.5C 465.5,547.167 465.5,544.833 465.5,542.5C 465.5,539.833 465.5,537.167 465.5,534.5C 465.5,528.5 465.5,522.5 465.5,516.5C 465.5,513.167 465.5,509.833 465.5,506.5C 466.329,499.011 466.829,491.344 467,483.5C 467.757,481.685 468.59,480.019 469.5,478.5 Z"/></g>
<g><path style="opacity:1" fill="#3b474d" d="M 465.5,502.5 C 465.5,503.833 465.5,505.167 465.5,506.5C 465.5,509.833 465.5,513.167 465.5,516.5C 464.21,517.058 463.377,518.058 463,519.5C 462.667,519.167 462.333,518.833 462,518.5C 460.675,520.338 458.841,521.338 456.5,521.5C 453.688,520.474 451.188,520.474 449,521.5C 448.333,520.833 447.667,520.167 447,519.5C 437.112,519.413 426.945,519.746 416.5,520.5C 416.649,519.448 416.483,518.448 416,517.5C 415.529,519.246 414.862,520.913 414,522.5C 413.501,517.845 413.334,513.179 413.5,508.5C 415.401,508.567 417.234,508.233 419,507.5C 420,508.167 421,508.833 422,509.5C 425.018,506.219 428.518,505.719 432.5,508C 430.1,508.186 427.766,508.686 425.5,509.5C 425.833,509.833 426.167,510.167 426.5,510.5C 434.017,510.155 441.517,510.155 449,510.5C 451.329,509.174 453.662,507.84 456,506.5C 456.167,506.833 456.333,507.167 456.5,507.5C 455.5,508.167 454.5,508.833 453.5,509.5C 455.074,510.631 456.741,510.798 458.5,510C 459.742,506.643 460.576,506.81 461,510.5C 462,509.167 463,509.167 464,510.5C 464.183,507.635 464.683,504.969 465.5,502.5 Z"/></g>
<g><path style="opacity:1" fill="#e7f0f2" d="M 319.5,471.5 C 318.519,496.455 318.186,521.455 318.5,546.5C 317.502,522.339 317.169,498.006 317.5,473.5C 317.833,472.5 318.5,471.833 319.5,471.5 Z"/></g>
<g><path style="opacity:1" fill="#3a474e" d="M 611.5,505.5 C 614.167,508.833 616.833,512.167 619.5,515.5C 619.833,516.167 620.167,516.833 620.5,517.5C 620.649,518.552 620.483,519.552 620,520.5C 619.667,520.167 619.333,519.833 619,519.5C 618.311,520.357 617.478,521.023 616.5,521.5C 615.005,520.888 613.338,520.888 611.5,521.5C 609.115,519.461 606.948,519.461 605,521.5C 603.755,521.539 602.422,521.205 601,520.5C 599.739,520.759 598.739,521.426 598,522.5C 596.582,520.637 594.749,520.137 592.5,521C 593.696,521.654 593.696,522.154 592.5,522.5C 590.952,520.078 589.286,520.078 587.5,522.5C 583.778,522.463 580.111,522.463 576.5,522.5C 573.963,522.565 571.963,521.565 570.5,519.5C 569.522,519.977 568.689,520.643 568,521.5C 564.722,519.31 561.222,517.644 557.5,516.5C 555.478,514.469 553.811,512.135 552.5,509.5C 553.774,508.811 553.774,507.977 552.5,507C 557.506,506.21 562.006,507.377 566,510.5C 568.42,508.869 570.42,509.203 572,511.5C 574.794,508.878 576.627,508.878 577.5,511.5C 578.941,510.696 580.441,510.029 582,509.5C 588.023,510.678 594.023,510.678 600,509.5C 600.95,510.022 601.784,510.689 602.5,511.5C 603.833,510.5 605.167,509.5 606.5,508.5C 606.167,508.167 605.833,507.833 605.5,507.5C 602.562,508.575 599.562,508.741 596.5,508C 597.99,506.228 599.657,506.061 601.5,507.5C 604.863,505.49 608.03,505.49 611,507.5C 611.464,506.906 611.631,506.239 611.5,505.5 Z"/></g>
<g><path style="opacity:1" fill="#39464d" d="M 206.5,510.5 C 206.666,514.846 206.499,519.179 206,523.5C 204.961,520.123 203.461,519.457 201.5,521.5C 200.038,520.529 198.705,520.862 197.5,522.5C 196.719,521.271 196.219,519.938 196,518.5C 193.961,520.874 191.628,522.874 189,524.5C 187.176,523.251 187.343,522.085 189.5,521C 187.035,521.565 184.702,522.732 182.5,524.5C 182.167,524.333 181.833,524.167 181.5,524C 183.007,523.163 183.507,521.996 183,520.5C 181.255,521.956 179.422,523.289 177.5,524.5C 176.833,523.5 176.167,522.5 175.5,521.5C 173.298,523.268 170.965,524.435 168.5,525C 170.396,523.935 170.563,523.102 169,522.5C 167.374,523.289 165.874,524.289 164.5,525.5C 163.904,524.284 163.737,522.951 164,521.5C 162.324,522.061 160.991,523.061 160,524.5C 159.167,523.5 158.333,522.5 157.5,521.5C 156.473,522.791 155.473,522.791 154.5,521.5C 154.5,516.833 154.5,512.167 154.5,507.5C 155.222,507.918 155.722,508.584 156,509.5C 157.941,505.446 158.775,505.78 158.5,510.5C 159.5,510.5 160.5,510.5 161.5,510.5C 161.281,511.675 161.614,512.675 162.5,513.5C 163.711,512.726 163.711,511.893 162.5,511C 163,510.833 163.5,510.667 164,510.5C 164.381,511.482 165.214,512.148 166.5,512.5C 168.05,511.268 169.717,510.768 171.5,511C 169.729,511.535 169.396,512.369 170.5,513.5C 172.973,511.59 175.806,510.59 179,510.5C 182.663,510.999 186.163,511.165 189.5,511C 188.549,511.718 188.383,512.551 189,513.5C 191.333,511.5 193.667,509.5 196,507.5C 196.333,509.167 196.667,510.833 197,512.5C 198.101,510.606 199.434,509.939 201,510.5C 202,509.167 203,507.833 204,506.5C 204.2,508.32 205.034,509.653 206.5,510.5 Z"/></g>
<g><path style="opacity:1" fill="#395564" d="M 270.5,459.5 C 270.833,459.5 271.167,459.5 271.5,459.5C 270.847,477.532 271.514,495.198 273.5,512.5C 273.833,513.5 274.5,514.167 275.5,514.5C 275.611,516.648 274.944,516.981 273.5,515.5C 272.41,516.727 271.076,517.56 269.5,518C 265.179,518.499 260.846,518.666 256.5,518.5C 256.719,517.325 256.386,516.325 255.5,515.5C 253.528,516.305 252.028,517.639 251,519.5C 250.536,518.906 250.369,518.239 250.5,517.5C 251.916,515.084 253.916,513.084 256.5,511.5C 257.498,502.859 257.831,494.192 257.5,485.5C 258.326,489.982 258.826,494.649 259,499.5C 259.179,496.447 259.679,493.447 260.5,490.5C 263.24,492.375 266.073,493.042 269,492.5C 269.333,498.5 269.667,504.5 270,510.5C 270.5,499.839 270.667,489.172 270.5,478.5C 270.5,472.167 270.5,465.833 270.5,459.5 Z"/></g>
<g><path style="opacity:1" fill="#395666" d="M 362.5,465.5 C 362.333,480.837 362.5,496.17 363,511.5C 364.615,512.386 366.115,513.386 367.5,514.5C 367.657,515.873 367.49,517.207 367,518.5C 366.667,518.167 366.333,517.833 366,517.5C 359.249,520.161 352.582,519.828 346,516.5C 344.233,517.34 342.899,518.673 342,520.5C 341.601,520.272 341.435,519.938 341.5,519.5C 341.5,518.833 341.5,518.167 341.5,517.5C 343.239,514.757 345.573,512.757 348.5,511.5C 348.833,511.5 349.167,511.5 349.5,511.5C 350.41,509.981 351.243,508.315 352,506.5C 352.595,510.082 353.929,510.416 356,507.5C 357.011,508.337 358.178,508.67 359.5,508.5C 359.281,509.675 359.614,510.675 360.5,511.5C 361.497,504.197 361.831,496.863 361.5,489.5C 361.174,481.316 361.508,473.316 362.5,465.5 Z"/></g>
<g><path style="opacity:1" fill="#316d8e" d="M 605.5,490.5 C 610.896,496.291 615.563,502.624 619.5,509.5C 619.5,511.5 619.5,513.5 619.5,515.5C 616.833,512.167 614.167,508.833 611.5,505.5C 610.248,503.999 609.248,502.332 608.5,500.5C 607.439,497.136 606.439,493.803 605.5,490.5 Z"/></g>
<g><path style="opacity:1" fill="#aabfc7" d="M 273.5,512.5 C 275.027,512.427 276.027,513.094 276.5,514.5C 276.167,514.5 275.833,514.5 275.5,514.5C 274.5,514.167 273.833,513.5 273.5,512.5 Z"/></g>
<g><path style="opacity:1" fill="#365869" d="M 315.5,497.5 C 315.833,497.5 316.167,497.5 316.5,497.5C 316.5,505.5 316.5,513.5 316.5,521.5C 315.71,522.609 315.21,523.942 315,525.5C 314.667,523.167 314.333,520.833 314,518.5C 311.945,518.152 309.945,518.819 308,520.5C 307.586,520.043 307.086,519.709 306.5,519.5C 305.682,522.107 305.182,524.774 305,527.5C 304.617,528.056 304.117,528.389 303.5,528.5C 303.5,524.5 303.5,520.5 303.5,516.5C 305.08,514.283 306.08,511.616 306.5,508.5C 307.5,509.167 308.5,509.833 309.5,510.5C 310.85,509.05 312.516,508.383 314.5,508.5C 314.336,511.187 314.503,513.854 315,516.5C 315.5,510.175 315.666,503.842 315.5,497.5 Z"/></g>
<g><path style="opacity:1" fill="#365d70" d="M 367.5,514.5 C 369.822,515.802 371.155,517.802 371.5,520.5C 371.664,523.187 371.497,525.854 371,528.5C 370.834,524.489 370,523.989 368.5,527C 364.844,527.245 361.344,527.411 358,527.5C 352.441,526.901 347.108,525.567 342,523.5C 341.502,526.482 341.335,529.482 341.5,532.5C 341.167,532.5 340.833,532.5 340.5,532.5C 339.64,528.566 339.307,524.566 339.5,520.5C 340.167,520.167 340.833,519.833 341.5,519.5C 341.435,519.938 341.601,520.272 342,520.5C 342.899,518.673 344.233,517.34 346,516.5C 352.582,519.828 359.249,520.161 366,517.5C 366.333,517.833 366.667,518.167 367,518.5C 367.49,517.207 367.657,515.873 367.5,514.5 Z"/></g>
<g><path style="opacity:1" fill="#2e6685" d="M 412.5,502.5 C 412.5,502.833 412.5,503.167 412.5,503.5C 412.5,509.5 412.5,515.5 412.5,521.5C 411.674,517.018 411.174,512.351 411,507.5C 410.667,508.833 410.333,510.167 410,511.5C 409.617,510.944 409.117,510.611 408.5,510.5C 408.5,508.5 408.5,506.5 408.5,504.5C 408.5,502.167 408.5,499.833 408.5,497.5C 409.117,497.389 409.617,497.056 410,496.5C 410.333,493.167 410.667,489.833 411,486.5C 411.173,492.016 411.673,497.349 412.5,502.5 Z"/></g>
<g><path style="opacity:1" fill="#7195a2" d="M 277.5,516.5 C 278.906,516.973 279.573,517.973 279.5,519.5C 278.094,519.027 277.427,518.027 277.5,516.5 Z"/></g>
<g><path style="opacity:1" fill="#9ab6c0" d="M 341.5,517.5 C 341.5,518.167 341.5,518.833 341.5,519.5C 340.833,519.833 340.167,520.167 339.5,520.5C 339.427,518.973 340.094,517.973 341.5,517.5 Z"/></g>
<g><path style="opacity:1" fill="#394c56" d="M 557.5,516.5 C 561.222,517.644 564.722,519.31 568,521.5C 568.689,520.643 569.522,519.977 570.5,519.5C 571.963,521.565 573.963,522.565 576.5,522.5C 580.111,522.463 583.778,522.463 587.5,522.5C 589.286,520.078 590.952,520.078 592.5,522.5C 593.696,522.154 593.696,521.654 592.5,521C 594.749,520.137 596.582,520.637 598,522.5C 598.739,521.426 599.739,520.759 601,520.5C 602.422,521.205 603.755,521.539 605,521.5C 606.948,519.461 609.115,519.461 611.5,521.5C 613.338,520.888 615.005,520.888 616.5,521.5C 617.478,521.023 618.311,520.357 619,519.5C 619.333,519.833 619.667,520.167 620,520.5C 620.483,519.552 620.649,518.552 620.5,517.5C 623.883,521.553 626.883,525.886 629.5,530.5C 629.007,532.806 628.674,535.139 628.5,537.5C 626.533,537.261 624.699,537.594 623,538.5C 622.676,536.431 621.842,536.098 620.5,537.5C 618.941,536.553 617.274,535.887 615.5,535.5C 609.69,536.316 603.857,536.983 598,537.5C 595.794,537.009 593.794,537.009 592,537.5C 591.667,536.833 591.333,536.167 591,535.5C 590.044,536.894 588.711,537.561 587,537.5C 582.174,537.056 577.34,535.723 572.5,533.5C 571.893,533.624 571.56,533.957 571.5,534.5C 568.5,531.167 565.5,527.833 562.5,524.5C 560.86,521.851 559.193,519.184 557.5,516.5 Z"/></g>
<g><path style="opacity:1" fill="#325f75" d="M 275.5,514.5 C 275.833,514.5 276.167,514.5 276.5,514.5C 276.833,515.167 277.167,515.833 277.5,516.5C 277.427,518.027 278.094,519.027 279.5,519.5C 280.482,522.962 280.815,526.629 280.5,530.5C 279.833,531.5 279.167,532.5 278.5,533.5C 277.842,532.602 277.176,531.602 276.5,530.5C 275.088,531.806 273.421,532.64 271.5,533C 264.721,532.894 258.221,533.727 252,535.5C 251.583,534.244 250.75,533.577 249.5,533.5C 248.89,532.609 248.557,531.609 248.5,530.5C 248.307,526.434 248.64,522.434 249.5,518.5C 249.5,517.833 249.833,517.5 250.5,517.5C 250.369,518.239 250.536,518.906 251,519.5C 252.028,517.639 253.528,516.305 255.5,515.5C 256.386,516.325 256.719,517.325 256.5,518.5C 260.846,518.666 265.179,518.499 269.5,518C 271.076,517.56 272.41,516.727 273.5,515.5C 274.944,516.981 275.611,516.648 275.5,514.5 Z"/></g>
<g><path style="opacity:1" fill="#2b749a" d="M 547.5,504.5 C 549.395,505.973 551.061,507.64 552.5,509.5C 553.811,512.135 555.478,514.469 557.5,516.5C 559.193,519.184 560.86,521.851 562.5,524.5C 561.206,523.71 560.039,522.71 559,521.5C 558.517,522.448 558.351,523.448 558.5,524.5C 553.15,518.478 548.15,512.145 543.5,505.5C 544.833,505.167 546.167,504.833 547.5,504.5 Z"/></g>
<g><path style="opacity:1" fill="#24759e" d="M 153.5,527.5 C 152.778,527.082 152.278,526.416 152,525.5C 151.667,525.833 151.333,526.167 151,526.5C 150.501,521.177 150.334,515.844 150.5,510.5C 151.151,509.909 151.818,509.243 152.5,508.5C 153.496,514.798 153.83,521.132 153.5,527.5 Z"/></g>
<g><path style="opacity:1" fill="#2d7599" d="M 211.5,492.5 C 211.5,502.833 211.5,513.167 211.5,523.5C 209.349,527.25 208.016,531.25 207.5,535.5C 207.5,533.167 207.5,530.833 207.5,528.5C 207.5,522.5 207.5,516.5 207.5,510.5C 208.314,508.369 208.814,506.036 209,503.5C 209.333,504.833 209.667,506.167 210,507.5C 210.174,502.316 210.674,497.316 211.5,492.5 Z"/></g>
<g><path style="opacity:1" fill="#2679a3" d="M 412.5,521.5 C 412.5,525.5 412.5,529.5 412.5,533.5C 412.5,537.5 412.5,541.5 412.5,545.5C 411.677,542.023 411.177,538.356 411,534.5C 410.667,534.167 410.333,533.833 410,533.5C 409.79,535.058 409.29,536.391 408.5,537.5C 408.5,528.5 408.5,519.5 408.5,510.5C 409.117,510.611 409.617,510.944 410,511.5C 410.333,510.167 410.667,508.833 411,507.5C 411.174,512.351 411.674,517.018 412.5,521.5 Z"/></g>
<g><path style="opacity:1" fill="#2379a1" d="M 469.5,503.5 C 469.83,510.2 469.497,516.866 468.5,523.5C 467.818,524.243 467.151,524.909 466.5,525.5C 466.334,520.156 466.501,514.823 467,509.5C 467.037,507.026 467.87,505.026 469.5,503.5 Z"/></g>
<g><path style="opacity:1" fill="#7a9ead" d="M 249.5,518.5 C 248.64,522.434 248.307,526.434 248.5,530.5C 247.357,527.024 247.19,523.358 248,519.5C 248.383,518.944 248.883,518.611 249.5,518.5 Z"/></g>
<g><path style="opacity:1" fill="#336177" d="M 316.5,521.5 C 316.5,524.5 316.5,527.5 316.5,530.5C 315.683,532.969 315.183,535.635 315,538.5C 314.667,534.5 314.333,530.5 314,526.5C 312.863,527.364 311.53,528.364 310,529.5C 308.644,528.62 307.144,528.286 305.5,528.5C 304.206,541.724 303.54,541.724 303.5,528.5C 304.117,528.389 304.617,528.056 305,527.5C 305.182,524.774 305.682,522.107 306.5,519.5C 307.086,519.709 307.586,520.043 308,520.5C 309.945,518.819 311.945,518.152 314,518.5C 314.333,520.833 314.667,523.167 315,525.5C 315.21,523.942 315.71,522.609 316.5,521.5 Z"/></g>
<g><path style="opacity:1" fill="#2e82ac" d="M 619.5,509.5 C 624.931,515.266 629.598,521.599 633.5,528.5C 633.567,529.959 633.234,531.292 632.5,532.5C 631.5,531.833 630.5,531.167 629.5,530.5C 626.883,525.886 623.883,521.553 620.5,517.5C 620.167,516.833 619.833,516.167 619.5,515.5C 619.5,513.5 619.5,511.5 619.5,509.5 Z"/></g>
<g><path style="opacity:1" fill="#374d58" d="M 207.5,501.5 C 207.5,504.5 207.5,507.5 207.5,510.5C 207.5,516.5 207.5,522.5 207.5,528.5C 206.683,530.969 206.183,533.635 206,536.5C 205.309,534.109 204.309,534.109 203,536.5C 200.42,534.309 197.92,534.642 195.5,537.5C 193.402,536.516 191.402,536.849 189.5,538.5C 187.098,538.01 184.765,537.676 182.5,537.5C 179.465,538.061 176.465,538.727 173.5,539.5C 169.828,539.496 166.161,539.496 162.5,539.5C 161.353,539.182 160.519,538.516 160,537.5C 158.177,538.312 156.344,539.312 154.5,540.5C 154.5,538.5 154.5,536.5 154.5,534.5C 154.5,530.167 154.5,525.833 154.5,521.5C 155.473,522.791 156.473,522.791 157.5,521.5C 158.333,522.5 159.167,523.5 160,524.5C 160.991,523.061 162.324,522.061 164,521.5C 163.737,522.951 163.904,524.284 164.5,525.5C 165.874,524.289 167.374,523.289 169,522.5C 170.563,523.102 170.396,523.935 168.5,525C 170.965,524.435 173.298,523.268 175.5,521.5C 176.167,522.5 176.833,523.5 177.5,524.5C 179.422,523.289 181.255,521.956 183,520.5C 183.507,521.996 183.007,523.163 181.5,524C 181.833,524.167 182.167,524.333 182.5,524.5C 184.702,522.732 187.035,521.565 189.5,521C 187.343,522.085 187.176,523.251 189,524.5C 191.628,522.874 193.961,520.874 196,518.5C 196.219,519.938 196.719,521.271 197.5,522.5C 198.705,520.862 200.038,520.529 201.5,521.5C 203.461,519.457 204.961,520.123 206,523.5C 206.499,519.179 206.666,514.846 206.5,510.5C 206.19,507.287 206.523,504.287 207.5,501.5 Z"/></g>
<g><path style="opacity:1" fill="#384e58" d="M 412.5,503.5 C 413.451,504.919 413.784,506.585 413.5,508.5C 413.334,513.179 413.501,517.845 414,522.5C 414.862,520.913 415.529,519.246 416,517.5C 416.483,518.448 416.649,519.448 416.5,520.5C 426.945,519.746 437.112,519.413 447,519.5C 447.667,520.167 448.333,520.833 449,521.5C 451.188,520.474 453.688,520.474 456.5,521.5C 458.841,521.338 460.675,520.338 462,518.5C 462.333,518.833 462.667,519.167 463,519.5C 463.377,518.058 464.21,517.058 465.5,516.5C 465.5,522.5 465.5,528.5 465.5,534.5C 464.778,534.918 464.278,535.584 464,536.5C 463.167,534.5 462.333,532.5 461.5,530.5C 459.833,531.833 458.167,533.167 456.5,534.5C 453.917,533.062 451.583,533.396 449.5,535.5C 449.167,535.167 448.833,534.833 448.5,534.5C 449.833,533.38 450.333,532.047 450,530.5C 447.835,531.583 445.835,532.916 444,534.5C 441.193,534.391 438.36,534.057 435.5,533.5C 433.608,536.044 431.775,536.044 430,533.5C 429.167,534.5 428.333,535.5 427.5,536.5C 425.833,533.833 424.167,533.833 422.5,536.5C 421.614,535.675 421.281,534.675 421.5,533.5C 419.263,534.449 416.929,535.116 414.5,535.5C 414.768,537.099 414.434,538.432 413.5,539.5C 413.795,537.265 413.461,535.265 412.5,533.5C 412.5,529.5 412.5,525.5 412.5,521.5C 412.5,515.5 412.5,509.5 412.5,503.5 Z"/></g>
<g><path style="opacity:1" fill="#91b4be" d="M 317.5,473.5 C 317.169,498.006 317.502,522.339 318.5,546.5C 318.5,546.833 318.5,547.167 318.5,547.5C 317.833,547.5 317.167,547.5 316.5,547.5C 316.5,541.833 316.5,536.167 316.5,530.5C 316.5,527.5 316.5,524.5 316.5,521.5C 316.5,513.5 316.5,505.5 316.5,497.5C 316.174,489.316 316.508,481.316 317.5,473.5 Z"/></g>
<g><path style="opacity:1" fill="#edf5f5" d="M 213.5,414.5 C 214.401,415.29 215.068,416.29 215.5,417.5C 214.167,471.167 212.833,524.833 211.5,578.5C 211.5,578.167 211.5,577.833 211.5,577.5C 212.167,523.167 212.833,468.833 213.5,414.5 Z"/></g>
<g><path style="opacity:1" fill="#346881" d="M 371.5,520.5 C 373.085,525.458 372.418,530.124 369.5,534.5C 366.581,535.315 363.581,536.315 360.5,537.5C 355.327,535.879 350.16,535.546 345,536.5C 343.595,535.269 342.429,533.936 341.5,532.5C 341.335,529.482 341.502,526.482 342,523.5C 347.108,525.567 352.441,526.901 358,527.5C 361.344,527.411 364.844,527.245 368.5,527C 370,523.989 370.834,524.489 371,528.5C 371.497,525.854 371.664,523.187 371.5,520.5 Z"/></g>
<g><path style="opacity:1" fill="#258cbb" d="M 562.5,524.5 C 565.5,527.833 568.5,531.167 571.5,534.5C 571.557,535.609 571.89,536.609 572.5,537.5C 571.167,537.833 569.833,538.167 568.5,538.5C 564.679,534.194 561.345,529.527 558.5,524.5C 558.351,523.448 558.517,522.448 559,521.5C 560.039,522.71 561.206,523.71 562.5,524.5 Z"/></g>
<g><path style="opacity:1" fill="#a4c5cb" d="M 280.5,530.5 C 280.88,532.698 280.213,534.365 278.5,535.5C 278.5,534.833 278.5,534.167 278.5,533.5C 279.167,532.5 279.833,531.5 280.5,530.5 Z"/></g>
<g><path style="opacity:1" fill="#385360" d="M 629.5,530.5 C 630.5,531.167 631.5,531.833 632.5,532.5C 634.42,535.339 636.087,538.339 637.5,541.5C 633.131,543.378 628.298,544.378 623,544.5C 622.25,543.874 621.416,543.374 620.5,543C 609.121,542.812 597.787,542.312 586.5,541.5C 585.707,541.931 584.873,542.265 584,542.5C 580.731,540.384 577.564,539.051 574.5,538.5C 573.833,538.167 573.167,537.833 572.5,537.5C 571.89,536.609 571.557,535.609 571.5,534.5C 571.56,533.957 571.893,533.624 572.5,533.5C 577.34,535.723 582.174,537.056 587,537.5C 588.711,537.561 590.044,536.894 591,535.5C 591.333,536.167 591.667,536.833 592,537.5C 593.794,537.009 595.794,537.009 598,537.5C 603.857,536.983 609.69,536.316 615.5,535.5C 617.274,535.887 618.941,536.553 620.5,537.5C 621.842,536.098 622.676,536.431 623,538.5C 624.699,537.594 626.533,537.261 628.5,537.5C 628.674,535.139 629.007,532.806 629.5,530.5 Z"/></g>
<g><path style="opacity:1" fill="#316d8a" d="M 278.5,533.5 C 278.5,534.167 278.5,534.833 278.5,535.5C 277.167,536.167 276.167,537.167 275.5,538.5C 273.388,540.771 270.721,542.104 267.5,542.5C 263.802,542.448 260.135,542.114 256.5,541.5C 253.244,539.664 250.911,536.997 249.5,533.5C 250.75,533.577 251.583,534.244 252,535.5C 258.221,533.727 264.721,532.894 271.5,533C 273.421,532.64 275.088,531.806 276.5,530.5C 277.176,531.602 277.842,532.602 278.5,533.5 Z"/></g>
<g><path style="opacity:1" fill="#3d7188" d="M 302.5,473.5 C 303.49,479.31 303.823,485.31 303.5,491.5C 303.5,499.833 303.5,508.167 303.5,516.5C 303.5,520.5 303.5,524.5 303.5,528.5C 303.54,541.724 304.206,541.724 305.5,528.5C 307.144,528.286 308.644,528.62 310,529.5C 311.53,528.364 312.863,527.364 314,526.5C 314.333,530.5 314.667,534.5 315,538.5C 315.183,535.635 315.683,532.969 316.5,530.5C 316.5,536.167 316.5,541.833 316.5,547.5C 316.44,548.043 316.107,548.376 315.5,548.5C 314.702,546.922 314.202,545.256 314,543.5C 312.071,545.983 309.738,546.649 307,545.5C 305.594,546.414 304.094,547.08 302.5,547.5C 302.5,522.833 302.5,498.167 302.5,473.5 Z"/></g>
<g><path style="opacity:1" fill="#388db6" d="M 149.5,494.5 C 149.833,494.5 150.167,494.5 150.5,494.5C 150.5,499.833 150.5,505.167 150.5,510.5C 150.334,515.844 150.501,521.177 151,526.5C 151.333,526.167 151.667,525.833 152,525.5C 152.278,526.416 152.778,527.082 153.5,527.5C 153.198,530.059 153.532,532.393 154.5,534.5C 154.5,536.5 154.5,538.5 154.5,540.5C 154.5,543.167 154.5,545.833 154.5,548.5C 154.5,551.833 154.5,555.167 154.5,558.5C 154.5,563.5 154.5,568.5 154.5,573.5C 153.67,563.008 153.17,552.341 153,541.5C 152.667,541.167 152.333,540.833 152,540.5C 151.722,541.416 151.222,542.082 150.5,542.5C 150.819,537.637 150.486,532.97 149.5,528.5C 149.5,517.167 149.5,505.833 149.5,494.5 Z"/></g>
<g><path style="opacity:1" fill="#397492" d="M 340.5,532.5 C 340.833,532.5 341.167,532.5 341.5,532.5C 342.429,533.936 343.595,535.269 345,536.5C 350.16,535.546 355.327,535.879 360.5,537.5C 363.581,536.315 366.581,535.315 369.5,534.5C 366.696,539.833 362.196,542.833 356,543.5C 348.187,543.515 343.02,539.848 340.5,532.5 Z"/></g>
<g><path style="opacity:1" fill="#375360" d="M 465.5,534.5 C 465.5,537.167 465.5,539.833 465.5,542.5C 464.25,542.423 463.417,541.756 463,540.5C 459.2,541.199 455.367,541.865 451.5,542.5C 450.335,541.509 449.168,540.509 448,539.5C 443.955,540.775 439.955,540.775 436,539.5C 434.149,541.781 432.482,541.781 431,539.5C 429.488,540.257 428.154,541.257 427,542.5C 426.316,538.907 424.816,538.573 422.5,541.5C 420.275,540.899 418.109,540.566 416,540.5C 415.292,541.381 414.458,542.047 413.5,542.5C 413.5,541.5 413.5,540.5 413.5,539.5C 414.434,538.432 414.768,537.099 414.5,535.5C 416.929,535.116 419.263,534.449 421.5,533.5C 421.281,534.675 421.614,535.675 422.5,536.5C 424.167,533.833 425.833,533.833 427.5,536.5C 428.333,535.5 429.167,534.5 430,533.5C 431.775,536.044 433.608,536.044 435.5,533.5C 438.36,534.057 441.193,534.391 444,534.5C 445.835,532.916 447.835,531.583 450,530.5C 450.333,532.047 449.833,533.38 448.5,534.5C 448.833,534.833 449.167,535.167 449.5,535.5C 451.583,533.396 453.917,533.062 456.5,534.5C 458.167,533.167 459.833,531.833 461.5,530.5C 462.333,532.5 463.167,534.5 464,536.5C 464.278,535.584 464.778,534.918 465.5,534.5 Z"/></g>
<g><path style="opacity:1" fill="#a4c6ce" d="M 278.5,535.5 C 278.5,537.5 277.5,538.5 275.5,538.5C 276.167,537.167 277.167,536.167 278.5,535.5 Z"/></g>
<g><path style="opacity:1" fill="#2a96c8" d="M 633.5,528.5 C 637.897,532.959 641.564,537.959 644.5,543.5C 644.567,544.959 644.234,546.292 643.5,547.5C 642.833,547.167 642.167,546.833 641.5,546.5C 640.876,544.246 639.543,542.579 637.5,541.5C 636.087,538.339 634.42,535.339 632.5,532.5C 633.234,531.292 633.567,529.959 633.5,528.5 Z"/></g>
<g><path style="opacity:1" fill="#355565" d="M 207.5,528.5 C 207.5,530.833 207.5,533.167 207.5,535.5C 207.5,536.5 207.5,537.5 207.5,538.5C 206.521,541.625 206.187,544.958 206.5,548.5C 205.442,547.4 204.608,546.066 204,544.5C 203.167,545.5 202.333,546.5 201.5,547.5C 200.833,546.833 200.167,546.167 199.5,545.5C 198.12,546.976 196.453,547.976 194.5,548.5C 193.808,547.975 193.308,547.308 193,546.5C 192.261,547.574 191.261,548.241 190,548.5C 177.832,548.325 165.999,548.325 154.5,548.5C 154.5,545.833 154.5,543.167 154.5,540.5C 156.344,539.312 158.177,538.312 160,537.5C 160.519,538.516 161.353,539.182 162.5,539.5C 166.161,539.496 169.828,539.496 173.5,539.5C 176.465,538.727 179.465,538.061 182.5,537.5C 184.765,537.676 187.098,538.01 189.5,538.5C 191.402,536.849 193.402,536.516 195.5,537.5C 197.92,534.642 200.42,534.309 203,536.5C 204.309,534.109 205.309,534.109 206,536.5C 206.183,533.635 206.683,530.969 207.5,528.5 Z"/></g>
<g><path style="opacity:1" fill="#375969" d="M 637.5,541.5 C 639.543,542.579 640.876,544.246 641.5,546.5C 641.423,547.75 640.756,548.583 639.5,549C 639.833,549.333 640.167,549.667 640.5,550C 623.879,551.592 607.212,551.925 590.5,551C 589.128,550.598 587.795,550.098 586.5,549.5C 585.824,550.602 585.158,551.602 584.5,552.5C 580.786,548.117 577.453,543.45 574.5,538.5C 577.564,539.051 580.731,540.384 584,542.5C 584.873,542.265 585.707,541.931 586.5,541.5C 597.787,542.312 609.121,542.812 620.5,543C 621.416,543.374 622.25,543.874 623,544.5C 628.298,544.378 633.131,543.378 637.5,541.5 Z"/></g>
<g><path style="opacity:1" fill="#8fb4c2" d="M 256.5,541.5 C 260.135,542.114 263.802,542.448 267.5,542.5C 266.207,543.158 264.707,543.492 263,543.5C 260.456,543.664 258.29,542.997 256.5,541.5 Z"/></g>
<g><path style="opacity:1" fill="#2296c6" d="M 211.5,523.5 C 211.5,531.5 211.5,539.5 211.5,547.5C 210.034,548.347 209.2,549.68 209,551.5C 208.824,555.688 208.324,559.688 207.5,563.5C 207.5,561.833 207.5,560.167 207.5,558.5C 207.5,551.833 207.5,545.167 207.5,538.5C 207.5,537.5 207.5,536.5 207.5,535.5C 208.016,531.25 209.349,527.25 211.5,523.5 Z"/></g>
<g><path style="opacity:1" fill="#345d71" d="M 206.5,548.5 C 206.664,551.187 206.497,553.854 206,556.5C 203.535,554.575 200.868,554.575 198,556.5C 184.7,556.754 171.367,556.42 158,555.5C 157.241,557.063 156.074,558.063 154.5,558.5C 154.5,555.167 154.5,551.833 154.5,548.5C 165.999,548.325 177.832,548.325 190,548.5C 191.261,548.241 192.261,547.574 193,546.5C 193.308,547.308 193.808,547.975 194.5,548.5C 196.453,547.976 198.12,546.976 199.5,545.5C 200.167,546.167 200.833,546.833 201.5,547.5C 202.333,546.5 203.167,545.5 204,544.5C 204.608,546.066 205.442,547.4 206.5,548.5 Z"/></g>
<g><path style="opacity:1" fill="#369bc6" d="M 469.5,491.5 C 469.833,491.5 470.167,491.5 470.5,491.5C 470.5,506.167 470.5,520.833 470.5,535.5C 469.511,540.975 469.178,546.642 469.5,552.5C 468.883,552.389 468.383,552.056 468,551.5C 467.667,552.833 467.333,554.167 467,555.5C 466.828,561.681 466.328,567.681 465.5,573.5C 465.5,570.833 465.5,568.167 465.5,565.5C 465.5,563.833 465.5,562.167 465.5,560.5C 465.5,557.5 465.5,554.5 465.5,551.5C 465.5,550.833 465.5,550.167 465.5,549.5C 466.492,541.684 466.826,533.684 466.5,525.5C 467.151,524.909 467.818,524.243 468.5,523.5C 469.497,516.866 469.83,510.2 469.5,503.5C 469.5,499.5 469.5,495.5 469.5,491.5 Z"/></g>
<g><path style="opacity:1" fill="#26a3d6" d="M 572.5,537.5 C 573.167,537.833 573.833,538.167 574.5,538.5C 577.453,543.45 580.786,548.117 584.5,552.5C 585.6,553.605 586.267,554.938 586.5,556.5C 585.542,556.047 584.708,555.381 584,554.5C 583.014,555.171 581.847,555.171 580.5,554.5C 576.147,549.473 572.147,544.14 568.5,538.5C 569.833,538.167 571.167,537.833 572.5,537.5 Z"/></g>
<g><path style="opacity:1" fill="#2c7b9d" d="M 316.5,547.5 C 317.167,547.5 317.833,547.5 318.5,547.5C 320.806,549.139 322.806,551.139 324.5,553.5C 324.5,554.833 324.5,556.167 324.5,557.5C 323.288,556.77 322.288,555.77 321.5,554.5C 314.492,555.441 307.492,555.108 300.5,553.5C 299.272,551.824 297.939,551.491 296.5,552.5C 297.865,550.14 299.865,548.473 302.5,547.5C 304.094,547.08 305.594,546.414 307,545.5C 309.738,546.649 312.071,545.983 314,543.5C 314.202,545.256 314.702,546.922 315.5,548.5C 316.107,548.376 316.44,548.043 316.5,547.5 Z"/></g>
<g><path style="opacity:1" fill="#356277" d="M 412.5,533.5 C 413.461,535.265 413.795,537.265 413.5,539.5C 413.5,540.5 413.5,541.5 413.5,542.5C 413.335,545.85 413.502,549.183 414,552.5C 415.669,549.091 418.002,548.758 421,551.5C 422.441,550.74 423.941,550.074 425.5,549.5C 432.754,550.265 440.087,550.598 447.5,550.5C 449.187,550.24 450.687,549.573 452,548.5C 455.333,548.5 458.667,548.5 462,548.5C 462.759,550.063 463.926,551.063 465.5,551.5C 465.5,554.5 465.5,557.5 465.5,560.5C 464.571,559.064 463.405,557.731 462,556.5C 454,557.167 446,557.833 438,558.5C 431.621,558.448 425.288,558.448 419,558.5C 416.217,555.56 414.55,556.227 414,560.5C 413.802,558.618 413.302,556.952 412.5,555.5C 412.5,552.167 412.5,548.833 412.5,545.5C 412.5,541.5 412.5,537.5 412.5,533.5 Z"/></g>
<g><path style="opacity:1" fill="#366277" d="M 641.5,546.5 C 642.167,546.833 642.833,547.167 643.5,547.5C 645.489,550.806 647.489,554.139 649.5,557.5C 649.631,558.376 649.298,559.043 648.5,559.5C 633.107,559.487 617.774,559.487 602.5,559.5C 598.521,558.503 594.521,558.003 590.5,558C 591.337,559.011 591.67,560.178 591.5,561.5C 590.061,559.64 588.395,557.973 586.5,556.5C 586.267,554.938 585.6,553.605 584.5,552.5C 585.158,551.602 585.824,550.602 586.5,549.5C 587.795,550.098 589.128,550.598 590.5,551C 607.212,551.925 623.879,551.592 640.5,550C 640.167,549.667 639.833,549.333 639.5,549C 640.756,548.583 641.423,547.75 641.5,546.5 Z"/></g>
<g><path style="opacity:1" fill="#2583aa" d="M 324.5,557.5 C 325.451,558.919 325.784,560.585 325.5,562.5C 324.542,562.047 323.708,561.381 323,560.5C 313.604,560.668 304.104,560.668 294.5,560.5C 294.5,559.167 294.5,557.833 294.5,556.5C 294.989,555.005 295.655,553.671 296.5,552.5C 297.939,551.491 299.272,551.824 300.5,553.5C 307.492,555.108 314.492,555.441 321.5,554.5C 322.288,555.77 323.288,556.77 324.5,557.5 Z"/></g>
<g><path style="opacity:1" fill="#21afe9" d="M 644.5,543.5 C 650.809,550.116 656.143,557.45 660.5,565.5C 660.511,567.017 661.177,568.184 662.5,569C 659.833,569.667 659.833,570.333 662.5,571C 661.944,571.383 661.611,571.883 661.5,572.5C 661.167,572.5 660.833,572.5 660.5,572.5C 659.974,570.77 658.974,569.436 657.5,568.5C 655.066,564.618 652.399,560.952 649.5,557.5C 647.489,554.139 645.489,550.806 643.5,547.5C 644.234,546.292 644.567,544.959 644.5,543.5 Z"/></g>
<g><path style="opacity:1" fill="#33667e" d="M 207.5,538.5 C 207.5,545.167 207.5,551.833 207.5,558.5C 206.691,560.292 206.191,562.292 206,564.5C 205,561.833 204,561.833 203,564.5C 187.636,564.306 172.47,564.306 157.5,564.5C 155.312,567.295 154.979,570.295 156.5,573.5C 155.833,573.5 155.167,573.5 154.5,573.5C 154.5,568.5 154.5,563.5 154.5,558.5C 156.074,558.063 157.241,557.063 158,555.5C 171.367,556.42 184.7,556.754 198,556.5C 200.868,554.575 203.535,554.575 206,556.5C 206.497,553.854 206.664,551.187 206.5,548.5C 206.187,544.958 206.521,541.625 207.5,538.5 Z"/></g>
<g><path style="opacity:1" fill="#64b5d2" d="M 324.5,553.5 C 326.047,555.807 326.713,558.473 326.5,561.5C 326.495,563.696 326.162,565.696 325.5,567.5C 325.5,567.167 325.5,566.833 325.5,566.5C 325.5,565.167 325.5,563.833 325.5,562.5C 325.784,560.585 325.451,558.919 324.5,557.5C 324.5,556.167 324.5,554.833 324.5,553.5 Z"/></g>
<g><path style="opacity:1" fill="#1baee5" d="M 211.5,547.5 C 211.5,553.833 211.5,560.167 211.5,566.5C 209.902,568.699 208.568,571.032 207.5,573.5C 207.5,570.167 207.5,566.833 207.5,563.5C 208.324,559.688 208.824,555.688 209,551.5C 209.2,549.68 210.034,548.347 211.5,547.5 Z"/></g>
<g><path style="opacity:1" fill="#1b9bd3" d="M 412.5,545.5 C 412.5,548.833 412.5,552.167 412.5,555.5C 412.5,558.833 412.5,562.167 412.5,565.5C 412.5,568.167 412.5,570.833 412.5,573.5C 411.674,568.684 411.174,563.684 411,558.5C 410.155,556.389 409.322,554.389 408.5,552.5C 408.5,547.5 408.5,542.5 408.5,537.5C 409.29,536.391 409.79,535.058 410,533.5C 410.333,533.833 410.667,534.167 411,534.5C 411.177,538.356 411.677,542.023 412.5,545.5 Z"/></g>
<g><path style="opacity:1" fill="#356c84" d="M 649.5,557.5 C 652.399,560.952 655.066,564.618 657.5,568.5C 657.565,568.938 657.399,569.272 657,569.5C 655.846,568.257 654.512,567.257 653,566.5C 635.974,567.139 619.14,567.306 602.5,567C 599.242,565.533 595.908,564.367 592.5,563.5C 592.167,562.833 591.833,562.167 591.5,561.5C 591.67,560.178 591.337,559.011 590.5,558C 594.521,558.003 598.521,558.503 602.5,559.5C 617.774,559.487 633.107,559.487 648.5,559.5C 649.298,559.043 649.631,558.376 649.5,557.5 Z"/></g>
<g><path style="opacity:1" fill="#22b5ea" d="M 580.5,554.5 C 581.847,555.171 583.014,555.171 584,554.5C 584.708,555.381 585.542,556.047 586.5,556.5C 588.395,557.973 590.061,559.64 591.5,561.5C 591.833,562.167 592.167,562.833 592.5,563.5C 594.817,567.146 597.484,570.48 600.5,573.5C 600.5,573.833 600.5,574.167 600.5,574.5C 599.167,574.833 597.833,575.167 596.5,575.5C 590.936,568.718 585.602,561.718 580.5,554.5 Z"/></g>
<g><path style="opacity:1" fill="#1e92c0" d="M 294.5,560.5 C 304.104,560.668 313.604,560.668 323,560.5C 323.708,561.381 324.542,562.047 325.5,562.5C 325.5,563.833 325.5,565.167 325.5,566.5C 316.357,567.041 307.191,566.374 298,564.5C 296.989,565.337 295.822,565.67 294.5,565.5C 294.5,563.833 294.5,562.167 294.5,560.5 Z"/></g>
<g><path style="opacity:1" fill="#18ade5" d="M 154.5,573.5 C 155.167,573.5 155.833,573.5 156.5,573.5C 173.5,573.5 190.5,573.5 207.5,573.5C 188.598,574.179 169.598,574.845 150.5,575.5C 150.5,564.5 150.5,553.5 150.5,542.5C 151.222,542.082 151.722,541.416 152,540.5C 152.333,540.833 152.667,541.167 153,541.5C 153.17,552.341 153.67,563.008 154.5,573.5 Z"/></g>
<g><path style="opacity:1" fill="#34738f" d="M 592.5,563.5 C 595.908,564.367 599.242,565.533 602.5,567C 619.14,567.306 635.974,567.139 653,566.5C 654.512,567.257 655.846,568.257 657,569.5C 657.399,569.272 657.565,568.938 657.5,568.5C 658.974,569.436 659.974,570.77 660.5,572.5C 640.674,573.497 620.674,573.83 600.5,573.5C 597.484,570.48 594.817,567.146 592.5,563.5 Z"/></g>
<g><path style="opacity:1" fill="#32708b" d="M 207.5,558.5 C 207.5,560.167 207.5,561.833 207.5,563.5C 207.5,566.833 207.5,570.167 207.5,573.5C 190.5,573.5 173.5,573.5 156.5,573.5C 154.979,570.295 155.312,567.295 157.5,564.5C 172.47,564.306 187.636,564.306 203,564.5C 204,561.833 205,561.833 206,564.5C 206.191,562.292 206.691,560.292 207.5,558.5 Z"/></g>
<g><path style="opacity:1" fill="#1ba2d6" d="M 294.5,556.5 C 294.5,557.833 294.5,559.167 294.5,560.5C 294.5,562.167 294.5,563.833 294.5,565.5C 295.822,565.67 296.989,565.337 298,564.5C 307.191,566.374 316.357,567.041 325.5,566.5C 325.5,566.833 325.5,567.167 325.5,567.5C 324.857,569.076 323.857,570.41 322.5,571.5C 314.14,572.291 305.807,572.624 297.5,572.5C 296.343,570.322 295.01,568.322 293.5,566.5C 293.187,562.958 293.521,559.625 294.5,556.5 Z"/></g>
<g><path style="opacity:1" fill="#c0e9f2" d="M 293.5,566.5 C 295.01,568.322 296.343,570.322 297.5,572.5C 297.5,572.833 297.5,573.167 297.5,573.5C 295.058,571.879 293.725,569.546 293.5,566.5 Z"/></g>
<g><path style="opacity:1" fill="#31b6eb" d="M 322.5,571.5 C 318.146,577.83 312.146,579.997 304.5,578C 302.138,576.489 299.805,574.989 297.5,573.5C 297.5,573.167 297.5,572.833 297.5,572.5C 305.807,572.624 314.14,572.291 322.5,571.5 Z"/></g>
<g><path style="opacity:1" fill="#2aa2d2" d="M 660.5,572.5 C 660.833,572.5 661.167,572.5 661.5,572.5C 641.527,574.488 621.194,575.155 600.5,574.5C 600.5,574.167 600.5,573.833 600.5,573.5C 620.674,573.83 640.674,573.497 660.5,572.5 Z"/></g>
<g><path style="opacity:1" fill="#15c5fb" d="M 211.5,566.5 C 211.5,570.167 211.5,573.833 211.5,577.5C 190.806,578.155 170.473,577.488 150.5,575.5C 169.598,574.845 188.598,574.179 207.5,573.5C 208.568,571.032 209.902,568.699 211.5,566.5 Z"/></g>
<g><path style="opacity:1" fill="#17c9fb" d="M 660.5,565.5 C 663.516,568.52 666.183,571.854 668.5,575.5C 645.19,577.49 621.524,578.157 597.5,577.5C 597.167,576.833 596.833,576.167 596.5,575.5C 597.833,575.167 599.167,574.833 600.5,574.5C 621.194,575.155 641.527,574.488 661.5,572.5C 661.611,571.883 661.944,571.383 662.5,571C 659.833,570.333 659.833,569.667 662.5,569C 661.177,568.184 660.511,567.017 660.5,565.5 Z"/></g>
<g><path style="opacity:1" fill="#5ed8f7" d="M 149.5,528.5 C 150.486,532.97 150.819,537.637 150.5,542.5C 150.5,553.5 150.5,564.5 150.5,575.5C 170.473,577.488 190.806,578.155 211.5,577.5C 211.5,577.833 211.5,578.167 211.5,578.5C 190.833,578.5 170.167,578.5 149.5,578.5C 149.5,561.833 149.5,545.167 149.5,528.5 Z"/></g>
<g><path style="opacity:1" fill="#75d5ef" d="M 407.5,504.5 C 407.833,504.5 408.167,504.5 408.5,504.5C 408.5,506.5 408.5,508.5 408.5,510.5C 408.5,519.5 408.5,528.5 408.5,537.5C 408.5,542.5 408.5,547.5 408.5,552.5C 408.5,560.833 408.5,569.167 408.5,577.5C 428.833,577.5 449.167,577.5 469.5,577.5C 469.5,569.167 469.5,560.833 469.5,552.5C 469.178,546.642 469.511,540.975 470.5,535.5C 470.5,549.833 470.5,564.167 470.5,578.5C 449.5,578.5 428.5,578.5 407.5,578.5C 407.5,553.833 407.5,529.167 407.5,504.5 Z"/></g>
<g><path style="opacity:1" fill="#1dbdf3" d="M 469.5,552.5 C 469.5,560.833 469.5,569.167 469.5,577.5C 449.167,577.5 428.833,577.5 408.5,577.5C 408.5,569.167 408.5,560.833 408.5,552.5C 409.322,554.389 410.155,556.389 411,558.5C 411.174,563.684 411.674,568.684 412.5,573.5C 430.167,573.5 447.833,573.5 465.5,573.5C 466.328,567.681 466.828,561.681 467,555.5C 467.333,554.167 467.667,552.833 468,551.5C 468.383,552.056 468.883,552.389 469.5,552.5 Z"/></g>
<g><path style="opacity:1" fill="#337591" d="M 465.5,565.5 C 465.5,568.167 465.5,570.833 465.5,573.5C 447.833,573.5 430.167,573.5 412.5,573.5C 412.5,570.833 412.5,568.167 412.5,565.5C 413.222,565.918 413.722,566.584 414,567.5C 414.419,566.328 415.085,565.328 416,564.5C 430.657,564.37 445.323,564.703 460,565.5C 462.572,562.143 464.405,562.143 465.5,565.5 Z"/></g>
<g><path style="opacity:1" fill="#346a84" d="M 412.5,555.5 C 413.302,556.952 413.802,558.618 414,560.5C 414.55,556.227 416.217,555.56 419,558.5C 425.288,558.448 431.621,558.448 438,558.5C 446,557.833 454,557.167 462,556.5C 463.405,557.731 464.571,559.064 465.5,560.5C 465.5,562.167 465.5,563.833 465.5,565.5C 464.405,562.143 462.572,562.143 460,565.5C 445.323,564.703 430.657,564.37 416,564.5C 415.085,565.328 414.419,566.328 414,567.5C 413.722,566.584 413.222,565.918 412.5,565.5C 412.5,562.167 412.5,558.833 412.5,555.5 Z"/></g>
<g><path style="opacity:1" fill="#365969" d="M 465.5,542.5 C 465.5,544.833 465.5,547.167 465.5,549.5C 465.5,550.167 465.5,550.833 465.5,551.5C 463.926,551.063 462.759,550.063 462,548.5C 458.667,548.5 455.333,548.5 452,548.5C 450.687,549.573 449.187,550.24 447.5,550.5C 440.087,550.598 432.754,550.265 425.5,549.5C 423.941,550.074 422.441,550.74 421,551.5C 418.002,548.758 415.669,549.091 414,552.5C 413.502,549.183 413.335,545.85 413.5,542.5C 414.458,542.047 415.292,541.381 416,540.5C 418.109,540.566 420.275,540.899 422.5,541.5C 424.816,538.573 426.316,538.907 427,542.5C 428.154,541.257 429.488,540.257 431,539.5C 432.482,541.781 434.149,541.781 436,539.5C 439.955,540.775 443.955,540.775 448,539.5C 449.168,540.509 450.335,541.509 451.5,542.5C 455.367,541.865 459.2,541.199 463,540.5C 463.417,541.756 464.25,542.423 465.5,542.5 Z"/></g>
<g><path style="opacity:1" fill="#76e2fb" d="M 668.5,575.5 C 669.404,576.209 669.737,577.209 669.5,578.5C 645.328,578.831 621.328,578.498 597.5,577.5C 621.524,578.157 645.19,577.49 668.5,575.5 Z"/></g>
</svg>
